<?xml version="1.0" encoding="UTF-8" standalone="no"?>
<!DOCTYPE svg PUBLIC "-//W3C//DTD SVG 1.1//EN"
 "http://www.w3.org/Graphics/SVG/1.1/DTD/svg11.dtd">
<!-- Generated by graphviz version 9.0.0 (20230911.1827)
 -->
<!-- Pages: 1 -->
<svg width="368pt" height="180pt"
 viewBox="0.00 0.00 368.00 180.00" xmlns="http://www.w3.org/2000/svg" xmlns:xlink="http://www.w3.org/1999/xlink">
<g id="graph0" class="graph" transform="scale(1 1) rotate(0) translate(4 176)">
<polygon fill="white" stroke="none" points="-4,4 -4,-176 364,-176 364,4 -4,4"/>
<text text-anchor="middle" x="180" y="-6" font-family="FiraSans-SemiBold" font-size="20.00">TITLE</text>
<g id="clust1" class="cluster">
<title>cluster_subs</title>
<polygon fill="none" stroke="black" points="82,-37 82,-164 278,-164 278,-37 82,-37"/>
<text text-anchor="middle" x="180" y="-43" font-family="FiraSans-SemiBold" font-size="20.00">Neoadjuvant Setting</text>
</g>
<!-- A -->
<g id="node1" class="node">
<title>A</title>
<polygon fill="none" stroke="#2d696a" stroke-width="1.5" points="0,-119 0,-155 54,-155 54,-119 0,-119"/>
<text text-anchor="middle" x="27" y="-130.4" font-family="Arial" font-size="18.00">A</text>
</g>
<!-- B -->
<g id="node2" class="node">
<title>B</title>
<polygon fill="none" stroke="#2d696a" stroke-width="1.5" points="153,-119 153,-155 207,-155 207,-119 153,-119"/>
<text text-anchor="middle" x="180" y="-130.4" font-family="Arial" font-size="18.00">B</text>
</g>
<!-- A&#45;&gt;B -->
<g id="edge1" class="edge">
<title>A&#45;&gt;B</title>
<path fill="none" stroke="black" stroke-width="2" d="M54.35,-137C54.35,-137 139.6,-137 139.6,-137"/>
<polygon fill="black" stroke="black" stroke-width="2" points="139.6,-140.5 149.6,-137 139.6,-133.5 139.6,-140.5"/>
</g>
<!-- C -->
<g id="node3" class="node">
<title>C</title>
<polygon fill="none" stroke="#2d696a" stroke-width="1.5" points="153,-75 153,-111 207,-111 207,-75 153,-75"/>
<text text-anchor="middle" x="180" y="-86.4" font-family="Arial" font-size="18.00">C</text>
</g>
<!-- D -->
<g id="node4" class="node">
<title>D</title>
<polygon fill="none" stroke="#2d696a" stroke-width="1.5" points="306,-75 306,-111 360,-111 360,-75 306,-75"/>
<text text-anchor="middle" x="333" y="-86.4" font-family="Arial" font-size="18.00">D</text>
</g>
<!-- C&#45;&gt;D -->
<g id="edge2" class="edge">
<title>C&#45;&gt;D</title>
<path fill="none" stroke="black" stroke-width="2" d="M207.35,-93C207.35,-93 292.6,-93 292.6,-93"/>
<polygon fill="black" stroke="black" stroke-width="2" points="292.6,-96.5 302.6,-93 292.6,-89.5 292.6,-96.5"/>
</g>
</g>
</svg>
