<?xml version="1.0" encoding="UTF-8" standalone="no"?>
<!DOCTYPE svg PUBLIC "-//W3C//DTD SVG 1.1//EN"
 "http://www.w3.org/Graphics/SVG/1.1/DTD/svg11.dtd">
<!-- Generated by graphviz version 9.0.0 (20230911.1827)
 -->
<!-- Pages: 1 -->
<svg width="1059pt" height="260pt"
 viewBox="0.00 0.00 1058.60 260.00" xmlns="http://www.w3.org/2000/svg" xmlns:xlink="http://www.w3.org/1999/xlink">
<g id="graph0" class="graph" transform="scale(1 1) rotate(0) translate(4 256)">
<polygon fill="white" stroke="none" points="-4,4 -4,-256 1054.6,-256 1054.6,4 -4,4"/>
<g id="clust2" class="cluster">
<title>cluster_armA</title>
<polygon fill="none" stroke="white" points="370.35,-139 370.35,-244 1042.6,-244 1042.6,-139 370.35,-139"/>
<text text-anchor="middle" x="706.48" y="-222.9" font-family="Arial Black" font-size="18.00">Intervention Arm N=550</text>
</g>
<g id="clust5" class="cluster">
<title>cluster_armB</title>
<polygon fill="none" stroke="white" points="373.23,-8 373.23,-113 1028.6,-113 1028.6,-8 373.23,-8"/>
<text text-anchor="middle" x="700.92" y="-91.9" font-family="Arial Black" font-size="18.00">Control Arm N=546</text>
</g>
<!-- population -->
<g id="node1" class="node">
<title>population</title>
<polygon fill="#eefffa" stroke="#2d696a" stroke-width="1.5" points="0,-53 0,-169 246.25,-169 246.25,-53 0,-53"/>
<text text-anchor="middle" x="123.12" y="-147.9" font-family="Arial" font-size="18.00">RCC w/ clear&#45;cell component</text>
<polyline fill="none" stroke="#2d696a" stroke-width="1.5" points="0,-140 246.25,-140"/>
<text text-anchor="middle" x="123.12" y="-118.9" font-family="Arial" font-size="18.00">Advanced or Metastatic</text>
<polyline fill="none" stroke="#2d696a" stroke-width="1.5" points="0,-111 246.25,-111"/>
<text text-anchor="middle" x="123.12" y="-89.9" font-family="Arial" font-size="18.00">KPS of at least 70%</text>
<polyline fill="none" stroke="#2d696a" stroke-width="1.5" points="0,-82 246.25,-82"/>
<text text-anchor="middle" x="123.12" y="-60.9" font-family="Arial" font-size="18.00">(N = 1390)</text>
</g>
<!-- method -->
<g id="node2" class="node">
<title>method</title>
<ellipse fill="#2d696a" stroke="#6c9a77" stroke-width="5" cx="312.3" cy="-111" rx="30.05" ry="30.05"/>
<text text-anchor="middle" x="312.3" y="-114.95" font-family="Arial" font-size="14.00" fill="#ffffff">🎲</text>
<text text-anchor="middle" x="312.3" y="-96.2" font-family="Arial" font-size="14.00" fill="#ffffff">1:1</text>
</g>
<!-- population&#45;&gt;method -->
<g id="edge3" class="edge">
<title>population&#45;&gt;method</title>
<path fill="none" stroke="black" stroke-width="2" d="M246.62,-111C253.75,-111 260.64,-111 267.08,-111"/>
<polygon fill="black" stroke="black" stroke-width="2" points="266.99,-114.5 276.99,-111 266.99,-107.5 266.99,-114.5"/>
</g>
<!-- intervention -->
<g id="node3" class="node">
<title>intervention</title>
<defs>
<linearGradient id="node3_l_0" gradientUnits="userSpaceOnUse" x1="378.35" y1="-177" x2="722.1" y2="-177" >
<stop offset="0" style="stop-color:#2d696a;stop-opacity:1.;"/>
<stop offset="1" style="stop-color:#6c9a77;stop-opacity:1.;"/>
</linearGradient>
</defs>
<polygon fill="url(#node3_l_0)" stroke="white" stroke-width="1.5" points="378.35,-148 378.35,-206 722.1,-206 722.1,-148 378.35,-148"/>
<text text-anchor="middle" x="550.23" y="-184.9" font-family="Arial" font-size="18.00" fill="#ffffff">Nivolumab 3 mg/kg + Ipilimumab 1 mg/kg</text>
<polyline fill="none" stroke="white" stroke-width="1.5" points="378.35,-177 722.1,-177"/>
<text text-anchor="middle" x="476.85" y="-155.9" font-family="Arial" font-size="18.00" fill="#ffffff">every 3 weeks</text>
<polyline fill="none" stroke="white" stroke-width="1.5" points="575.35,-148 575.35,-177"/>
<text text-anchor="middle" x="648.48" y="-155.9" font-family="Arial" font-size="18.00" fill="#ffffff">4 doses</text>
</g>
<!-- method&#45;&gt;intervention -->
<g id="edge4" class="edge">
<title>method&#45;&gt;intervention</title>
<path fill="none" stroke="black" stroke-width="2" d="M342.76,-121.86C351.58,-124.97 361.31,-128.26 370.35,-131 375.36,-132.52 380.45,-134.03 385.61,-135.53"/>
<polygon fill="black" stroke="black" stroke-width="2" points="384.23,-138.77 394.8,-138.17 386.16,-132.05 384.23,-138.77"/>
</g>
<!-- control -->
<g id="node5" class="node">
<title>control</title>
<polygon fill="white" stroke="#2d696a" stroke-width="1.5" points="381.23,-17 381.23,-75 719.23,-75 719.23,-17 381.23,-17"/>
<text text-anchor="middle" x="550.23" y="-53.9" font-family="Arial" font-size="18.00" fill="#2d696a">Sunitinib 50 mg</text>
<polyline fill="none" stroke="#2d696a" stroke-width="1.5" points="381.23,-46 719.23,-46"/>
<text text-anchor="middle" x="477.35" y="-24.9" font-family="Arial" font-size="18.00" fill="#2d696a">once daily for 4 weeks</text>
<polyline fill="none" stroke="#2d696a" stroke-width="1.5" points="573.48,-17 573.48,-46"/>
<text text-anchor="middle" x="646.35" y="-24.9" font-family="Arial" font-size="18.00" fill="#2d696a">then 2 weeks off</text>
</g>
<!-- method&#45;&gt;control -->
<g id="edge5" class="edge">
<title>method&#45;&gt;control</title>
<path fill="none" stroke="black" stroke-width="2" d="M343.66,-102.64C348.91,-101.19 354.69,-99.6 360.87,-97.89"/>
<polygon fill="black" stroke="black" stroke-width="2" points="361.6,-101.32 370.31,-95.29 359.74,-94.57 361.6,-101.32"/>
</g>
<!-- intervention_2 -->
<g id="node4" class="node">
<title>intervention_2</title>
<defs>
<linearGradient id="node4_l_1" gradientUnits="userSpaceOnUse" x1="758.1" y1="-177" x2="1034.6" y2="-177" >
<stop offset="0" style="stop-color:#2d696a;stop-opacity:1.;"/>
<stop offset="1" style="stop-color:#6c9a77;stop-opacity:1.;"/>
</linearGradient>
</defs>
<polygon fill="url(#node4_l_1)" stroke="white" stroke-width="1.5" points="758.1,-148 758.1,-206 1034.6,-206 1034.6,-148 758.1,-148"/>
<text text-anchor="middle" x="896.35" y="-184.9" font-family="Arial" font-size="18.00" fill="#ffffff">Nivolumab 3 mg/kg</text>
<polyline fill="none" stroke="white" stroke-width="1.5" points="758.1,-177 1034.6,-177"/>
<text text-anchor="middle" x="823.1" y="-155.9" font-family="Arial" font-size="18.00" fill="#ffffff">every 2 weeks</text>
<polyline fill="none" stroke="white" stroke-width="1.5" points="888.1,-148 888.1,-177"/>
<text text-anchor="middle" x="961.35" y="-155.9" font-family="Arial" font-size="18.00" fill="#ffffff">until PD, Toxicity</text>
</g>
<!-- intervention&#45;&gt;intervention_2 -->
<g id="edge1" class="edge">
<title>intervention&#45;&gt;intervention_2</title>
<path fill="none" stroke="black" stroke-width="2" d="M722.54,-177C730,-177 737.47,-177 744.88,-177"/>
<polygon fill="black" stroke="black" stroke-width="2" points="744.69,-180.5 754.69,-177 744.69,-173.5 744.69,-180.5"/>
</g>
<!-- control_2 -->
<g id="node6" class="node">
<title>control_2</title>
<polygon fill="white" stroke="none" stroke-width="1.5" points="1020.6,-71 772.1,-71 772.1,-21 1020.6,-21 1020.6,-71"/>
<text text-anchor="middle" x="896.35" y="-49.9" font-family="Arial" font-size="18.00" fill="#2d696a">until documented PD, </text>
<text text-anchor="middle" x="896.35" y="-28.9" font-family="Arial" font-size="18.00" fill="#2d696a">discontinuation due to toxicity</text>
</g>
<!-- control&#45;&gt;control_2 -->
<g id="edge2" class="edge">
<title>control&#45;&gt;control_2</title>
<path fill="none" stroke="black" stroke-width="2" d="M719.51,-46C733.07,-46 746.67,-46 759.96,-46"/>
<polygon fill="black" stroke="black" stroke-width="2" points="759.57,-49.5 769.57,-46 759.57,-42.5 759.57,-49.5"/>
</g>
</g>
</svg>
