<?xml version="1.0" encoding="UTF-8" standalone="no"?>
<!DOCTYPE svg PUBLIC "-//W3C//DTD SVG 1.1//EN"
 "http://www.w3.org/Graphics/SVG/1.1/DTD/svg11.dtd">
<!-- Generated by graphviz version 9.0.0 (20230911.1827)
 -->
<!-- Pages: 1 -->
<svg width="817pt" height="446pt"
 viewBox="0.00 0.00 816.79 446.38" xmlns="http://www.w3.org/2000/svg" xmlns:xlink="http://www.w3.org/1999/xlink">
<g id="graph0" class="graph" transform="scale(1 1) rotate(0) translate(4 442.38)">
<polygon fill="white" stroke="none" points="-4,4 -4,-442.38 812.79,-442.38 812.79,4 -4,4"/>
<g id="clust1" class="cluster">
<title>cluster_armA</title>
<polygon fill="none" stroke="white" points="460.79,-265.5 460.79,-427.5 800.79,-427.5 800.79,-265.5 460.79,-265.5"/>
<text text-anchor="middle" x="630.79" y="-400.7" font-family="Inter-Bold" font-size="24.00" fill="#2d696a">Intervention Arm</text>
</g>
<g id="clust2" class="cluster">
<title>cluster_armB</title>
<polygon fill="none" stroke="white" points="460.79,-112.5 460.79,-242.5 800.79,-242.5 800.79,-112.5 460.79,-112.5"/>
<text text-anchor="middle" x="630.79" y="-215.7" font-family="Inter-Bold" font-size="24.00" fill="#2d696a">Control Arm</text>
</g>
<!-- background -->
<g id="node1" class="node">
<title>background</title>
<polygon fill="none" stroke="white" stroke-width="1.5" points="0,-0.5 0,-92.5 337.75,-92.5 337.75,-0.5 0,-0.5"/>
<text text-anchor="middle" x="168.88" y="-69.5" font-family="Inter-Medium" font-size="20.00">Stratification by </text>
<text text-anchor="middle" x="168.88" y="-48.5" font-family="Inter-Medium" font-size="20.00">ER status, age, neoadjuvant, </text>
<text text-anchor="middle" x="168.88" y="-27.5" font-family="Inter-Medium" font-size="20.00">chemotherapy, </text>
<text text-anchor="middle" x="168.88" y="-6.5" font-family="Inter-Medium" font-size="20.00">  use of 5&#45;FU, institution, node status</text>
</g>
<!-- pupulation -->
<g id="node2" class="node">
<title>pupulation</title>
<polygon fill="#eeffff" stroke="#2d696a" stroke-width="1.5" points="18,-165.25 18,-325.75 319.75,-325.75 319.75,-165.25 18,-165.25"/>
<text text-anchor="middle" x="168.88" y="-304.65" font-family="Inter-Medium" font-size="18.00">stage I&#45;IIIB HER2&#45; BC</text>
<polyline fill="none" stroke="#2d696a" stroke-width="1.5" points="18,-299 319.75,-299"/>
<text text-anchor="middle" x="168.88" y="-277.9" font-family="Inter-Medium" font-size="18.00">aged 20&#45;74 yrs of age</text>
<polyline fill="none" stroke="#2d696a" stroke-width="1.5" points="18,-272.25 319.75,-272.25"/>
<text text-anchor="middle" x="168.88" y="-251.15" font-family="Inter-Medium" font-size="18.00">(non&#45;pCR, N+) after neoadjuvant</text>
<polyline fill="none" stroke="#2d696a" stroke-width="1.5" points="18,-245.5 319.75,-245.5"/>
<text text-anchor="middle" x="168.88" y="-224.4" font-family="Inter-Medium" font-size="18.00">ECOG PS 0/1</text>
<polyline fill="none" stroke="#2d696a" stroke-width="1.5" points="18,-218.75 319.75,-218.75"/>
<text text-anchor="middle" x="168.88" y="-197.65" font-family="Inter-Medium" font-size="18.00">  no previous oral fluoropyrimidines  </text>
<polyline fill="none" stroke="#2d696a" stroke-width="1.5" points="18,-192 319.75,-192"/>
<text text-anchor="middle" x="168.88" y="-170.9" font-family="Inter-Medium" font-size="18.00">(N = 910)</text>
</g>
<!-- method -->
<g id="node3" class="node">
<title>method</title>
<ellipse fill="#2d696a" stroke="#6c9a77" stroke-width="5" cx="403.27" cy="-245.5" rx="29.52" ry="29.52"/>
<text text-anchor="middle" x="403.27" y="-249.07" font-family="Inter-Medium" font-size="14.00" fill="#ffffff">🎲</text>
<text text-anchor="middle" x="403.27" y="-230.32" font-family="Inter-Medium" font-size="14.00" fill="#ffffff">1:1</text>
</g>
<!-- pupulation&#45;&gt;method -->
<g id="edge1" class="edge">
<title>pupulation&#45;&gt;method</title>
<path fill="none" stroke="black" stroke-width="2" d="M320.01,-245.5C333.85,-245.5 346.99,-245.5 358.54,-245.5"/>
<polygon fill="black" stroke="black" stroke-width="2" points="358.29,-249 368.29,-245.5 358.29,-242 358.29,-249"/>
</g>
<!-- intervention -->
<g id="node4" class="node">
<title>intervention</title>
<defs>
<linearGradient id="node4_l_0" gradientUnits="userSpaceOnUse" x1="468.79" y1="-330.5" x2="792.79" y2="-330.5" >
<stop offset="0" style="stop-color:#2d696a;stop-opacity:1.;"/>
<stop offset="1" style="stop-color:#6c9a77;stop-opacity:1.;"/>
</linearGradient>
</defs>
<polygon fill="url(#node4_l_0)" stroke="white" stroke-width="1.5" points="468.79,-274.38 468.79,-386.62 792.79,-386.62 792.79,-274.38 468.79,-274.38"/>
<text text-anchor="middle" x="630.79" y="-365.52" font-family="Inter-Medium" font-size="18.00" fill="#ffffff">💊 Capecitabine</text>
<polyline fill="none" stroke="white" stroke-width="1.5" points="468.79,-354.62 792.79,-354.62"/>
<text text-anchor="middle" x="630.79" y="-333.52" font-family="Inter-Medium" font-size="18.00" fill="#ffffff">2500 mg/m2/day PO Days 1&#45;14</text>
<polyline fill="none" stroke="white" stroke-width="1.5" points="468.79,-327.88 792.79,-327.88"/>
<text text-anchor="middle" x="630.79" y="-306.77" font-family="Inter-Medium" font-size="18.00" fill="#ffffff">Q3W 8 cycles</text>
<polyline fill="none" stroke="white" stroke-width="1.5" points="468.79,-301.12 792.79,-301.12"/>
<text text-anchor="middle" x="630.79" y="-280.02" font-family="Inter-Medium" font-size="18.00" fill="#ffffff">Hormonal therapy if ER/PgR+</text>
</g>
<!-- method&#45;&gt;intervention -->
<g id="edge2" class="edge">
<title>method&#45;&gt;intervention</title>
<path fill="none" stroke="black" stroke-width="2" d="M433.29,-256.44C438.06,-258.24 443.29,-260.2 448.87,-262.31"/>
<polygon fill="black" stroke="black" stroke-width="2" points="447.37,-265.48 457.96,-265.74 449.84,-258.93 447.37,-265.48"/>
</g>
<!-- control -->
<g id="node5" class="node">
<title>control</title>
<polygon fill="white" stroke="#2d696a" stroke-width="1.5" points="468.79,-121.38 468.79,-201.62 792.79,-201.62 792.79,-121.38 468.79,-121.38"/>
<text text-anchor="middle" x="630.79" y="-180.53" font-family="Inter-Medium" font-size="18.00" fill="#2d696a">Placebo</text>
<polyline fill="none" stroke="#2d696a" stroke-width="1.5" points="468.79,-174.88 792.79,-174.88"/>
<text text-anchor="middle" x="630.79" y="-153.78" font-family="Inter-Medium" font-size="18.00" fill="#2d696a">Hormonal therapy if ER/PgR+</text>
<polyline fill="none" stroke="#2d696a" stroke-width="1.5" points="468.79,-148.12 792.79,-148.12"/>
<text text-anchor="middle" x="630.79" y="-127.03" font-family="Inter-Medium" font-size="18.00" fill="#2d696a">No further therapy if ER/PgR&#45;</text>
</g>
<!-- method&#45;&gt;control -->
<g id="edge3" class="edge">
<title>method&#45;&gt;control</title>
<path fill="none" stroke="black" stroke-width="2" d="M433.29,-234.69C438.06,-232.91 443.29,-230.97 448.87,-228.89"/>
<polygon fill="black" stroke="black" stroke-width="2" points="449.81,-232.27 457.96,-225.5 447.37,-225.71 449.81,-232.27"/>
</g>
<!-- title -->
<g id="node6" class="node">
<title>title</title>
<polygon fill="none" stroke="white" stroke-width="1.5" points="85.88,-399.12 85.88,-437.88 251.88,-437.88 251.88,-399.12 85.88,-399.12"/>
<text text-anchor="middle" x="168.88" y="-405.38" font-family="Inter-Black" font-size="30.00" fill="#2d696a">CREATE&#45;X</text>
</g>
</g>
</svg>
