<?xml version="1.0" encoding="UTF-8" standalone="no"?>
<!DOCTYPE svg PUBLIC "-//W3C//DTD SVG 1.1//EN"
 "http://www.w3.org/Graphics/SVG/1.1/DTD/svg11.dtd">
<!-- Generated by graphviz version 9.0.0 (20230911.1827)
 -->
<!-- Pages: 1 -->
<svg width="584pt" height="437pt"
 viewBox="0.00 0.00 584.00 437.25" xmlns="http://www.w3.org/2000/svg" xmlns:xlink="http://www.w3.org/1999/xlink">
<g id="graph0" class="graph" transform="scale(1 1) rotate(0) translate(4 433.25)">
<polygon fill="white" stroke="none" points="-4,4 -4,-433.25 580,-433.25 580,4 -4,4"/>
<text text-anchor="middle" x="37.62" y="-8.25" font-family="Arial" font-size="20.00">mRCC</text>
<!-- group_2_first_node -->
<g id="node1" class="node">
<title>group_2_first_node</title>
<polygon fill="none" stroke="#2d696a" stroke-width="1.5" points="0,-135.75 0,-171.75 144,-171.75 144,-135.75 0,-135.75"/>
<text text-anchor="middle" x="72" y="-147.15" font-family="Arial" font-size="18.00">Non&#45;Clear Cell</text>
</g>
<!-- Cytokine_2 -->
<g id="node9" class="node">
<title>Cytokine_2</title>
<polygon fill="none" stroke="#2d696a" stroke-width="1.5" points="432,-135.75 432,-171.75 576,-171.75 576,-135.75 432,-135.75"/>
<text text-anchor="middle" x="504" y="-147.15" font-family="Arial" font-size="18.00">Cytokine</text>
</g>
<!-- group_2_first_node&#45;&gt;Cytokine_2 -->
<g id="edge8" class="edge">
<title>group_2_first_node&#45;&gt;Cytokine_2</title>
<path fill="none" stroke="black" stroke-width="1.5" d="M144.49,-153.75C220.24,-153.75 339.75,-153.75 419.71,-153.75"/>
<polygon fill="black" stroke="black" stroke-width="1.5" points="419.43,-157.25 429.43,-153.75 419.43,-150.25 419.43,-157.25"/>
</g>
<!-- InterRisk_2 -->
<g id="node13" class="node">
<title>InterRisk_2</title>
<text text-anchor="middle" x="288" y="-110.65" font-family="Arial" font-size="18.00">Intermediate/</text>
<text text-anchor="middle" x="288" y="-89.65" font-family="Arial" font-size="18.00">Poor Risk</text>
</g>
<!-- group_2_first_node&#45;&gt;InterRisk_2 -->
<g id="edge9" class="edge">
<title>group_2_first_node&#45;&gt;InterRisk_2</title>
<path fill="none" stroke="black" stroke-width="1.5" d="M144.26,-138.1C163.48,-133.88 184.44,-129.27 204.23,-124.93"/>
<polygon fill="black" stroke="black" stroke-width="1.5" points="204.82,-128.38 213.83,-122.82 203.32,-121.55 204.82,-128.38"/>
</g>
<!-- PoorRisk_2 -->
<g id="node14" class="node">
<title>PoorRisk_2</title>
<text text-anchor="middle" x="288" y="-43.15" font-family="Arial" font-size="18.00">Poor Risk</text>
</g>
<!-- group_2_first_node&#45;&gt;PoorRisk_2 -->
<g id="edge11" class="edge">
<title>group_2_first_node&#45;&gt;PoorRisk_2</title>
<path fill="none" stroke="black" stroke-width="1.5" d="M102.93,-135.29C131.36,-118.23 175.63,-92.86 216,-74.75 217.89,-73.9 219.81,-73.07 221.76,-72.24"/>
<polygon fill="black" stroke="black" stroke-width="1.5" points="223.06,-75.49 231.02,-68.5 220.44,-69 223.06,-75.49"/>
</g>
<!-- group_1_first_node -->
<g id="node2" class="node">
<title>group_1_first_node</title>
<polygon fill="none" stroke="#2d696a" stroke-width="1.5" points="0,-290.75 0,-326.75 144,-326.75 144,-290.75 0,-290.75"/>
<text text-anchor="middle" x="72" y="-302.15" font-family="Arial" font-size="18.00">Clear Cell</text>
</g>
<!-- sunitinib -->
<g id="node3" class="node">
<title>sunitinib</title>
<polygon fill="none" stroke="#2d696a" stroke-width="1.5" points="432,-392.75 432,-428.75 576,-428.75 576,-392.75 432,-392.75"/>
<text text-anchor="middle" x="504" y="-404.15" font-family="Arial" font-size="18.00">sunitinib</text>
</g>
<!-- group_1_first_node&#45;&gt;sunitinib -->
<g id="edge1" class="edge">
<title>group_1_first_node&#45;&gt;sunitinib</title>
<path fill="none" stroke="black" stroke-width="1.5" d="M144.21,-326.98C167.11,-332.77 192.6,-339.12 216,-344.75 284.45,-361.23 362.3,-379.08 419.64,-392.06"/>
<polygon fill="black" stroke="black" stroke-width="1.5" points="418.81,-395.46 429.33,-394.25 420.35,-388.63 418.81,-395.46"/>
</g>
<!-- Pazopanib -->
<g id="node4" class="node">
<title>Pazopanib</title>
<polygon fill="none" stroke="#2d696a" stroke-width="1.5" points="432,-341.75 432,-377.75 576,-377.75 576,-341.75 432,-341.75"/>
<text text-anchor="middle" x="504" y="-353.15" font-family="Arial" font-size="18.00">Pazopanib</text>
</g>
<!-- group_1_first_node&#45;&gt;Pazopanib -->
<g id="edge2" class="edge">
<title>group_1_first_node&#45;&gt;Pazopanib</title>
<path fill="none" stroke="black" stroke-width="1.5" d="M144.49,-317.23C220.24,-326.21 339.75,-340.39 419.71,-349.87"/>
<polygon fill="black" stroke="black" stroke-width="1.5" points="419.1,-353.32 429.44,-351.03 419.93,-346.37 419.1,-353.32"/>
</g>
<!-- cytokine -->
<g id="node5" class="node">
<title>cytokine</title>
<polygon fill="none" stroke="#2d696a" stroke-width="1.5" points="432,-290.75 432,-326.75 576,-326.75 576,-290.75 432,-290.75"/>
<text text-anchor="middle" x="504" y="-302.15" font-family="Arial" font-size="18.00">Cytokine</text>
</g>
<!-- group_1_first_node&#45;&gt;cytokine -->
<g id="edge3" class="edge">
<title>group_1_first_node&#45;&gt;cytokine</title>
<path fill="none" stroke="black" stroke-width="1.5" d="M144.49,-308.75C220.24,-308.75 339.75,-308.75 419.71,-308.75"/>
<polygon fill="black" stroke="black" stroke-width="1.5" points="419.43,-312.25 429.43,-308.75 419.43,-305.25 419.43,-312.25"/>
</g>
<!-- InterRisk -->
<g id="node11" class="node">
<title>InterRisk</title>
<text text-anchor="middle" x="288" y="-265.65" font-family="Arial" font-size="18.00">Intermediate/</text>
<text text-anchor="middle" x="288" y="-244.65" font-family="Arial" font-size="18.00">Poor Risk</text>
</g>
<!-- group_1_first_node&#45;&gt;InterRisk -->
<g id="edge4" class="edge">
<title>group_1_first_node&#45;&gt;InterRisk</title>
<path fill="none" stroke="black" stroke-width="1.5" d="M144.26,-293.1C163.48,-288.88 184.44,-284.27 204.23,-279.93"/>
<polygon fill="black" stroke="black" stroke-width="1.5" points="204.82,-283.38 213.83,-277.82 203.32,-276.55 204.82,-283.38"/>
</g>
<!-- PoorRisk -->
<g id="node12" class="node">
<title>PoorRisk</title>
<text text-anchor="middle" x="288" y="-198.15" font-family="Arial" font-size="18.00">Poor Risk</text>
</g>
<!-- group_1_first_node&#45;&gt;PoorRisk -->
<g id="edge6" class="edge">
<title>group_1_first_node&#45;&gt;PoorRisk</title>
<path fill="none" stroke="black" stroke-width="1.5" d="M102.93,-290.29C131.36,-273.23 175.63,-247.86 216,-229.75 217.89,-228.9 219.81,-228.07 221.76,-227.24"/>
<polygon fill="black" stroke="black" stroke-width="1.5" points="223.06,-230.49 231.02,-223.5 220.44,-224 223.06,-230.49"/>
</g>
<!-- Cabozantinib -->
<g id="node6" class="node">
<title>Cabozantinib</title>
<polygon fill="none" stroke="#2d696a" stroke-width="1.5" points="432,-239.75 432,-275.75 576,-275.75 576,-239.75 432,-239.75"/>
<text text-anchor="middle" x="504" y="-251.15" font-family="Arial" font-size="18.00">Cabozantinib</text>
</g>
<!-- Cabozantinib_2 -->
<g id="node7" class="node">
<title>Cabozantinib_2</title>
<polygon fill="none" stroke="#2d696a" stroke-width="1.5" points="432,-84.75 432,-120.75 576,-120.75 576,-84.75 432,-84.75"/>
<text text-anchor="middle" x="504" y="-96.15" font-family="Arial" font-size="18.00">Cabozantinib</text>
</g>
<!-- Temsirolimus -->
<g id="node8" class="node">
<title>Temsirolimus</title>
<polygon fill="none" stroke="#2d696a" stroke-width="1.5" points="432,-186.75 432,-222.75 576,-222.75 576,-186.75 432,-186.75"/>
<text text-anchor="middle" x="504" y="-198.15" font-family="Arial" font-size="18.00">Temsirolimus</text>
</g>
<!-- Temsirolimus_2 -->
<g id="node10" class="node">
<title>Temsirolimus_2</title>
<polygon fill="none" stroke="#2d696a" stroke-width="1.5" points="432,-31.75 432,-67.75 576,-67.75 576,-31.75 432,-31.75"/>
<text text-anchor="middle" x="504" y="-43.15" font-family="Arial" font-size="18.00">Temsirolimus</text>
</g>
<!-- InterRisk&#45;&gt;Cabozantinib -->
<g id="edge5" class="edge">
<title>InterRisk&#45;&gt;Cabozantinib</title>
<path fill="none" stroke="black" stroke-width="1.5" d="M359.96,-260.42C379.11,-260.07 399.99,-259.68 419.74,-259.31"/>
<polygon fill="black" stroke="black" stroke-width="1.5" points="419.66,-262.81 429.6,-259.12 419.53,-255.81 419.66,-262.81"/>
</g>
<!-- PoorRisk&#45;&gt;Temsirolimus -->
<g id="edge7" class="edge">
<title>PoorRisk&#45;&gt;Temsirolimus</title>
<path fill="none" stroke="black" stroke-width="1.5" d="M359.96,-204.75C379.11,-204.75 399.99,-204.75 419.74,-204.75"/>
<polygon fill="black" stroke="black" stroke-width="1.5" points="419.6,-208.25 429.6,-204.75 419.6,-201.25 419.6,-208.25"/>
</g>
<!-- InterRisk_2&#45;&gt;Cabozantinib_2 -->
<g id="edge10" class="edge">
<title>InterRisk_2&#45;&gt;Cabozantinib_2</title>
<path fill="none" stroke="black" stroke-width="1.5" d="M359.96,-105.42C379.11,-105.07 399.99,-104.68 419.74,-104.31"/>
<polygon fill="black" stroke="black" stroke-width="1.5" points="419.66,-107.81 429.6,-104.12 419.53,-100.81 419.66,-107.81"/>
</g>
<!-- PoorRisk_2&#45;&gt;Temsirolimus_2 -->
<g id="edge12" class="edge">
<title>PoorRisk_2&#45;&gt;Temsirolimus_2</title>
<path fill="none" stroke="black" stroke-width="1.5" d="M359.96,-49.75C379.11,-49.75 399.99,-49.75 419.74,-49.75"/>
<polygon fill="black" stroke="black" stroke-width="1.5" points="419.6,-53.25 429.6,-49.75 419.6,-46.25 419.6,-53.25"/>
</g>
</g>
</svg>
