<?xml version="1.0" encoding="UTF-8" standalone="no"?>
<!DOCTYPE svg PUBLIC "-//W3C//DTD SVG 1.1//EN"
 "http://www.w3.org/Graphics/SVG/1.1/DTD/svg11.dtd">
<!-- Generated by graphviz version 9.0.0 (20230911.1827)
 -->
<!-- Pages: 1 -->
<svg width="816pt" height="284pt"
 viewBox="0.00 0.00 815.85 284.00" xmlns="http://www.w3.org/2000/svg" xmlns:xlink="http://www.w3.org/1999/xlink">
<g id="graph0" class="graph" transform="scale(1 1) rotate(0) translate(4 280)">
<polygon fill="white" stroke="none" points="-4,4 -4,-280 811.85,-280 811.85,4 -4,4"/>
<g id="clust2" class="cluster">
<title>cluster_armA</title>
<polygon fill="none" stroke="white" points="463.23,-101 463.23,-268 784.98,-268 784.98,-101 463.23,-101"/>
<text text-anchor="middle" x="624.1" y="-245" font-family="Arial Black" font-size="20.00" fill="#2d696a">Intervention Arm N= 323</text>
</g>
<g id="clust4" class="cluster">
<title>cluster_armB</title>
<polygon fill="none" stroke="white" points="448.35,-8 448.35,-93 799.85,-93 799.85,-8 448.35,-8"/>
<text text-anchor="middle" x="624.1" y="-70" font-family="Arial Black" font-size="20.00" fill="#2d696a">Control Arm N= 328</text>
</g>
<!-- population -->
<g id="node1" class="node">
<title>population</title>
<polygon fill="#eefffa" stroke="#2d696a" stroke-width="1.5" points="0,-44 0,-160 324.25,-160 324.25,-44 0,-44"/>
<text text-anchor="middle" x="162.12" y="-138.9" font-family="Arial" font-size="18.00">untreated advanced or metastatic RCC</text>
<polyline fill="none" stroke="#2d696a" stroke-width="1.5" points="0,-131 324.25,-131"/>
<text text-anchor="middle" x="162.12" y="-109.9" font-family="Arial" font-size="18.00">clear&#45;cell component</text>
<polyline fill="none" stroke="#2d696a" stroke-width="1.5" points="0,-102 324.25,-102"/>
<text text-anchor="middle" x="162.12" y="-80.9" font-family="Arial" font-size="18.00">any IMDC risk group testing</text>
<polyline fill="none" stroke="#2d696a" stroke-width="1.5" points="0,-73 324.25,-73"/>
<text text-anchor="middle" x="162.12" y="-51.9" font-family="Arial" font-size="18.00">(N = 651)</text>
</g>
<!-- method -->
<g id="node2" class="node">
<title>method</title>
<ellipse fill="#2d696a" stroke="#6c9a77" stroke-width="5" cx="390.3" cy="-102" rx="30.05" ry="30.05"/>
<text text-anchor="middle" x="390.3" y="-105.95" font-family="Arial" font-size="14.00" fill="#ffffff">🎲</text>
<text text-anchor="middle" x="390.3" y="-87.2" font-family="Arial" font-size="14.00" fill="#ffffff">1:1</text>
</g>
<!-- population&#45;&gt;method -->
<g id="edge1" class="edge">
<title>population&#45;&gt;method</title>
<path fill="none" stroke="black" stroke-width="2" d="M324.49,-102C331.68,-102 338.56,-102 344.96,-102"/>
<polygon fill="black" stroke="black" stroke-width="2" points="344.73,-105.5 354.73,-102 344.73,-98.5 344.73,-105.5"/>
</g>
<!-- intervention_1 -->
<g id="node3" class="node">
<title>intervention_1</title>
<defs>
<linearGradient id="node3_l_0" gradientUnits="userSpaceOnUse" x1="471.23" y1="-169" x2="776.98" y2="-169" >
<stop offset="0" style="stop-color:#2d696a;stop-opacity:1.;"/>
<stop offset="1" style="stop-color:#6c9a77;stop-opacity:1.;"/>
</linearGradient>
</defs>
<polygon fill="url(#node3_l_0)" stroke="white" stroke-width="1.5" points="471.23,-109.5 471.23,-228.5 776.98,-228.5 776.98,-109.5 471.23,-109.5"/>
<text text-anchor="middle" x="624.1" y="-207.4" font-family="Arial" font-size="18.00" fill="#ffffff">💊 Nivolumab 240 mg IV Q2W</text>
<polyline fill="none" stroke="white" stroke-width="1.5" points="471.23,-196.5 776.98,-196.5"/>
<text text-anchor="middle" x="624.1" y="-175.4" font-family="Arial" font-size="18.00" fill="#ffffff">Cabozantinib 40 mg PO QD</text>
<polyline fill="none" stroke="white" stroke-width="1.5" points="471.23,-167.5 776.98,-167.5"/>
<text text-anchor="middle" x="541.1" y="-146.4" font-family="Arial" font-size="18.00" fill="#ffffff">Doxo/Epirubicin</text>
<polyline fill="none" stroke="white" stroke-width="1.5" points="610.98,-138.5 610.98,-167.5"/>
<text text-anchor="middle" x="693.98" y="-146.4" font-family="Arial" font-size="18.00" fill="#ffffff">Cyclophosphamide</text>
<polyline fill="none" stroke="white" stroke-width="1.5" points="471.23,-138.5 776.98,-138.5"/>
<text text-anchor="middle" x="533.85" y="-117.4" font-family="Arial" font-size="18.00" fill="#ffffff">Q3W</text>
<polyline fill="none" stroke="white" stroke-width="1.5" points="596.48,-109.5 596.48,-138.5"/>
<text text-anchor="middle" x="686.6" y="-117.4" font-family="Arial" font-size="18.00" fill="#ffffff">4 + 4 cycles</text>
</g>
<!-- method&#45;&gt;intervention_1 -->
<g id="edge2" class="edge">
<title>method&#45;&gt;intervention_1</title>
<path fill="none" stroke="black" stroke-width="2" d="M421.61,-110.76C432.14,-113.8 444.81,-117.47 458.6,-121.45"/>
<polygon fill="black" stroke="black" stroke-width="2" points="449.77,-122.14 460.36,-122.05 452.03,-115.51 449.77,-122.14"/>
</g>
<!-- control_1 -->
<g id="node4" class="node">
<title>control_1</title>
<polygon fill="white" stroke="#2d696a" stroke-width="1.5" points="456.35,-17 456.35,-53 791.85,-53 791.85,-17 456.35,-17"/>
<text text-anchor="middle" x="624.1" y="-28.4" font-family="Arial" font-size="18.00" fill="#2d696a">Sunitinib 50 mg PO QD 4 wk on/2 wk off</text>
</g>
<!-- method&#45;&gt;control_1 -->
<g id="edge3" class="edge">
<title>method&#45;&gt;control_1</title>
<path fill="none" stroke="black" stroke-width="2" d="M421.61,-93.24C426.03,-91.96 430.83,-90.57 435.94,-89.1"/>
<polygon fill="black" stroke="black" stroke-width="2" points="436.81,-92.49 445.45,-86.35 434.87,-85.76 436.81,-92.49"/>
</g>
</g>
</svg>
