<?xml version="1.0" encoding="UTF-8" standalone="no"?>
<!DOCTYPE svg PUBLIC "-//W3C//DTD SVG 1.1//EN"
 "http://www.w3.org/Graphics/SVG/1.1/DTD/svg11.dtd">
<!-- Generated by graphviz version 9.0.0 (20230911.1827)
 -->
<!-- Pages: 1 -->
<svg width="242pt" height="123pt"
 viewBox="0.00 0.00 242.00 123.00" xmlns="http://www.w3.org/2000/svg" xmlns:xlink="http://www.w3.org/1999/xlink">
<g id="graph0" class="graph" transform="scale(1 1) rotate(0) translate(4 119)">
<polygon fill="white" stroke="none" points="-4,4 -4,-119 238,-119 238,4 -4,4"/>
<text text-anchor="middle" x="117" y="-92" font-family="Inter-SemiBoldItalic" font-size="20.00">Playground</text>
<!-- g1a -->
<g id="node1" class="node">
<title>g1a</title>
<text text-anchor="middle" x="27" y="-61.4" font-family="Arial" font-size="18.00">g1a</text>
</g>
<!-- g1b -->
<g id="node2" class="node">
<title>g1b</title>
<text text-anchor="middle" x="117" y="-61.4" font-family="Arial" font-size="18.00">g1b</text>
</g>
<!-- g1a&#45;&gt;g1b -->
<g id="edge1" class="edge">
<title>g1a&#45;&gt;g1b</title>
<path fill="none" stroke="black" stroke-width="0.5" d="M53.52,-68C53.52,-68 79.29,-68 79.29,-68"/>
<polygon fill="black" stroke="black" stroke-width="0.5" points="79.29,-71.5 89.29,-68 79.29,-64.5 79.29,-71.5"/>
</g>
<!-- g2b -->
<g id="node4" class="node">
<title>g2b</title>
<text text-anchor="middle" x="117" y="-11.4" font-family="Arial" font-size="18.00">g2b</text>
</g>
<!-- g1a&#45;&gt;g2b -->
<g id="edge2" class="edge">
<title>g1a&#45;&gt;g2b</title>
<path fill="none" stroke="black" stroke-width="0.5" d="M27,-50.23C27,-35.86 27,-18 27,-18 27,-18 79.73,-18 79.73,-18"/>
<polygon fill="black" stroke="black" stroke-width="0.5" points="79.73,-21.5 89.73,-18 79.73,-14.5 79.73,-21.5"/>
</g>
<!-- g1c -->
<g id="node3" class="node">
<title>g1c</title>
<text text-anchor="middle" x="207" y="-61.4" font-family="Arial" font-size="18.00">g1c</text>
</g>
<!-- g1b&#45;&gt;g1c -->
<g id="edge3" class="edge">
<title>g1b&#45;&gt;g1c</title>
<path fill="none" stroke="black" stroke-width="0.5" d="M143.52,-68C143.52,-68 169.29,-68 169.29,-68"/>
<polygon fill="black" stroke="black" stroke-width="0.5" points="169.29,-71.5 179.29,-68 169.29,-64.5 169.29,-71.5"/>
</g>
<!-- g2c -->
<g id="node5" class="node">
<title>g2c</title>
<text text-anchor="middle" x="207" y="-11.4" font-family="Arial" font-size="18.00">g2c</text>
</g>
<!-- g2b&#45;&gt;g2c -->
<g id="edge4" class="edge">
<title>g2b&#45;&gt;g2c</title>
<path fill="none" stroke="black" stroke-width="0.5" d="M143.52,-18C143.52,-18 169.29,-18 169.29,-18"/>
<polygon fill="black" stroke="black" stroke-width="0.5" points="169.29,-21.5 179.29,-18 169.29,-14.5 169.29,-21.5"/>
</g>
</g>
</svg>
