<?xml version="1.0" encoding="UTF-8" standalone="no"?>
<!DOCTYPE svg PUBLIC "-//W3C//DTD SVG 1.1//EN"
 "http://www.w3.org/Graphics/SVG/1.1/DTD/svg11.dtd">
<!-- Generated by graphviz version 9.0.0 (20230911.1827)
 -->
<!-- Pages: 1 -->
<svg width="976pt" height="232pt"
 viewBox="0.00 0.00 976.35 232.00" xmlns="http://www.w3.org/2000/svg" xmlns:xlink="http://www.w3.org/1999/xlink">
<g id="graph0" class="graph" transform="scale(1 1) rotate(0) translate(4 228)">
<polygon fill="white" stroke="none" points="-4,4 -4,-228 972.35,-228 972.35,4 -4,4"/>
<g id="clust2" class="cluster">
<title>cluster_armA</title>
<polygon fill="none" stroke="white" points="543.6,-105 543.6,-216 960.35,-216 960.35,-105 543.6,-105"/>
<text text-anchor="middle" x="751.98" y="-189.2" font-family="Arial Black" font-size="24.00" fill="#2d696a">Intervention Arm N= 432</text>
</g>
<g id="clust4" class="cluster">
<title>cluster_armB</title>
<polygon fill="none" stroke="white" points="548.85,-8 548.85,-97 955.1,-97 955.1,-8 548.85,-8"/>
<text text-anchor="middle" x="751.98" y="-70.2" font-family="Arial Black" font-size="24.00" fill="#2d696a">Control Arm N= 429</text>
</g>
<!-- population -->
<g id="node1" class="node">
<title>population</title>
<polygon fill="#eefffa" stroke="#2d696a" stroke-width="1.5" points="0,-45.5 0,-132.5 419.5,-132.5 419.5,-45.5 0,-45.5"/>
<text text-anchor="middle" x="209.75" y="-111.4" font-family="Arial" font-size="18.00">newly diagnosed/ recurrent stage IV clear&#45;cell RCC</text>
<polyline fill="none" stroke="#2d696a" stroke-width="1.5" points="0,-103.5 419.5,-103.5"/>
<text text-anchor="middle" x="209.75" y="-82.4" font-family="Arial" font-size="18.00">no prior systemic therapy for advanced disease</text>
<polyline fill="none" stroke="#2d696a" stroke-width="1.5" points="0,-74.5 419.5,-74.5"/>
<text text-anchor="middle" x="209.75" y="-53.4" font-family="Arial" font-size="18.00">(N = 861)</text>
</g>
<!-- method -->
<g id="node2" class="node">
<title>method</title>
<ellipse fill="#2d696a" stroke="#6c9a77" stroke-width="5" cx="485.55" cy="-89" rx="30.05" ry="30.05"/>
<text text-anchor="middle" x="485.55" y="-92.95" font-family="Arial" font-size="14.00" fill="#ffffff">🎲</text>
<text text-anchor="middle" x="485.55" y="-74.2" font-family="Arial" font-size="14.00" fill="#ffffff">1:1</text>
</g>
<!-- population&#45;&gt;method -->
<g id="edge1" class="edge">
<title>population&#45;&gt;method</title>
<path fill="none" stroke="black" stroke-width="2" d="M419.66,-89C426.86,-89 433.68,-89 440.01,-89"/>
<polygon fill="black" stroke="black" stroke-width="2" points="440,-92.5 450,-89 440,-85.5 440,-92.5"/>
</g>
<!-- intervention_1 -->
<g id="node3" class="node">
<title>intervention_1</title>
<defs>
<linearGradient id="node3_l_0" gradientUnits="userSpaceOnUse" x1="551.6" y1="-143" x2="952.35" y2="-143" >
<stop offset="0" style="stop-color:#2d696a;stop-opacity:1.;"/>
<stop offset="1" style="stop-color:#6c9a77;stop-opacity:1.;"/>
</linearGradient>
</defs>
<polygon fill="url(#node3_l_0)" stroke="white" stroke-width="1.5" points="551.6,-114 551.6,-172 952.35,-172 952.35,-114 551.6,-114"/>
<text text-anchor="middle" x="751.98" y="-150.9" font-family="Arial" font-size="18.00" fill="#ffffff">Pembrolizumab 200 mg Q3W for up to 35 cycles</text>
<polyline fill="none" stroke="white" stroke-width="1.5" points="551.6,-143 952.35,-143"/>
<text text-anchor="middle" x="751.98" y="-121.9" font-family="Arial" font-size="18.00" fill="#ffffff">Axitinib 5 mg PO BID</text>
</g>
<!-- method&#45;&gt;intervention_1 -->
<g id="edge2" class="edge">
<title>method&#45;&gt;intervention_1</title>
<path fill="none" stroke="black" stroke-width="2" d="M517.4,-95.3C527.43,-97.35 539.4,-99.79 552.54,-102.48"/>
<polygon fill="black" stroke="black" stroke-width="2" points="551.46,-105.83 561.96,-104.4 552.86,-98.97 551.46,-105.83"/>
</g>
<!-- control_1 -->
<g id="node4" class="node">
<title>control_1</title>
<polygon fill="white" stroke="#2d696a" stroke-width="1.5" points="556.85,-17 556.85,-53 947.1,-53 947.1,-17 556.85,-17"/>
<text text-anchor="middle" x="751.98" y="-28.4" font-family="Arial" font-size="18.00" fill="#2d696a">Sunitinib 50 mg PO QD wks of each 6&#45;wk cycle</text>
</g>
<!-- method&#45;&gt;control_1 -->
<g id="edge3" class="edge">
<title>method&#45;&gt;control_1</title>
<path fill="none" stroke="black" stroke-width="2" d="M517.4,-82.7C523.08,-81.54 529.38,-80.25 536.16,-78.87"/>
<polygon fill="black" stroke="black" stroke-width="2" points="536.79,-82.31 545.89,-76.88 535.39,-75.45 536.79,-82.31"/>
</g>
</g>
</svg>
