<?xml version="1.0" encoding="UTF-8" standalone="no"?>
<!DOCTYPE svg PUBLIC "-//W3C//DTD SVG 1.1//EN"
 "http://www.w3.org/Graphics/SVG/1.1/DTD/svg11.dtd">
<!-- Generated by graphviz version 9.0.0 (20230911.1827)
 -->
<!-- Pages: 1 -->
<svg width="1042pt" height="405pt"
 viewBox="0.00 0.00 1042.25 405.00" xmlns="http://www.w3.org/2000/svg" xmlns:xlink="http://www.w3.org/1999/xlink">
<g id="graph0" class="graph" transform="scale(1 1) rotate(0) translate(4 401)">
<polygon fill="white" stroke="none" points="-4,4 -4,-401 1038.25,-401 1038.25,4 -4,4"/>
<g id="clust1" class="cluster">
<title>cluster_example</title>
<polygon fill="none" stroke="white" points="243.5,-140 243.5,-389 449.5,-389 449.5,-140 243.5,-140"/>
<text text-anchor="middle" x="346.5" y="-352.7" font-family="FiraSans-SemiBoldItalic" font-size="34.00" fill="#2d696a">Neoadjuvant</text>
</g>
<!-- AC -->
<g id="node1" class="node">
<title>AC</title>
<polygon fill="white" stroke="#2d696a" stroke-width="1.5" points="24.75,-280 24.75,-338 190.75,-338 190.75,-280 24.75,-280"/>
<text text-anchor="middle" x="107.75" y="-316.9" font-family="Arial" font-size="18.00">AC</text>
<polyline fill="none" stroke="#2d696a" stroke-width="1.5" points="24.75,-309 190.75,-309"/>
<text text-anchor="middle" x="107.75" y="-287.9" font-family="Arial" font-size="18.00">Pembrolizumab * 4</text>
</g>
<!-- Taxotere_CDDP -->
<g id="node2" class="node">
<title>Taxotere_CDDP</title>
<polygon fill="white" stroke="#2d696a" stroke-width="1.5" points="263.5,-280 263.5,-338 429.5,-338 429.5,-280 263.5,-280"/>
<text text-anchor="middle" x="346.5" y="-316.9" font-family="Arial" font-size="18.00">Taxotere/CDDP</text>
<polyline fill="none" stroke="#2d696a" stroke-width="1.5" points="263.5,-309 429.5,-309"/>
<text text-anchor="middle" x="346.5" y="-287.9" font-family="Arial" font-size="18.00">Pembrolizumab * 4</text>
</g>
<!-- AC&#45;&gt;Taxotere_CDDP -->
<g id="edge4" class="edge">
<title>AC&#45;&gt;Taxotere_CDDP</title>
<path fill="none" stroke="black" stroke-width="2" d="M191.22,-309C210.38,-309 230.92,-309 250.57,-309"/>
<polygon fill="black" stroke="black" stroke-width="2" points="250.3,-312.5 260.3,-309 250.3,-305.5 250.3,-312.5"/>
</g>
<!-- Surgery -->
<g id="node9" class="node">
<title>Surgery</title>
<defs>
<linearGradient id="node9_l_0" gradientUnits="userSpaceOnUse" x1="477.5" y1="-243" x2="555.75" y2="-243" >
<stop offset="0" style="stop-color:#2d696a;stop-opacity:1.;"/>
<stop offset="1" style="stop-color:#6c9a77;stop-opacity:1.;"/>
</linearGradient>
</defs>
<polygon fill="url(#node9_l_0)" stroke="white" stroke-width="1.5" points="477.5,-225 477.5,-261 555.75,-261 555.75,-225 477.5,-225"/>
<text text-anchor="middle" x="516.62" y="-236.4" font-family="Arial" font-size="18.00" fill="#ffffff">Surgery</text>
</g>
<!-- Taxotere_CDDP&#45;&gt;Surgery -->
<g id="edge5" class="edge">
<title>Taxotere_CDDP&#45;&gt;Surgery</title>
<path fill="none" stroke="black" stroke-width="2" d="M422.22,-279.67C436.72,-273.97 451.6,-268.13 465.1,-262.83"/>
<polygon fill="black" stroke="black" stroke-width="2" points="466.21,-266.16 474.24,-259.25 463.66,-259.64 466.21,-266.16"/>
</g>
<!-- carboplatin -->
<g id="node3" class="node">
<title>carboplatin</title>
<polygon fill="white" stroke="#2d696a" stroke-width="1.5" points="0,-149 0,-207 215.5,-207 215.5,-149 0,-149"/>
<text text-anchor="middle" x="107.75" y="-185.9" font-family="Arial" font-size="18.00">carboplatin and paclitaxol</text>
<polyline fill="none" stroke="#2d696a" stroke-width="1.5" points="0,-178 215.5,-178"/>
<text text-anchor="middle" x="107.75" y="-156.9" font-family="Arial" font-size="18.00">Pembrolizumab * 4</text>
</g>
<!-- followbyAC -->
<g id="node4" class="node">
<title>followbyAC</title>
<polygon fill="white" stroke="#2d696a" stroke-width="1.5" points="263.5,-149 263.5,-207 429.5,-207 429.5,-149 263.5,-149"/>
<text text-anchor="middle" x="346.5" y="-185.9" font-family="Arial" font-size="18.00">AC</text>
<polyline fill="none" stroke="#2d696a" stroke-width="1.5" points="263.5,-178 429.5,-178"/>
<text text-anchor="middle" x="346.5" y="-156.9" font-family="Arial" font-size="18.00">Pembrolizumab * 4</text>
</g>
<!-- carboplatin&#45;&gt;followbyAC -->
<g id="edge1" class="edge">
<title>carboplatin&#45;&gt;followbyAC</title>
<path fill="none" stroke="black" stroke-width="2" d="M215.7,-178C227.27,-178 238.99,-178 250.41,-178"/>
<polygon fill="black" stroke="black" stroke-width="2" points="250.13,-181.5 260.13,-178 250.13,-174.5 250.13,-181.5"/>
</g>
<!-- followbyAC&#45;&gt;Surgery -->
<g id="edge2" class="edge">
<title>followbyAC&#45;&gt;Surgery</title>
<path fill="none" stroke="black" stroke-width="2" d="M423.69,-207.46C437.78,-212.9 452.17,-218.47 465.25,-223.52"/>
<polygon fill="black" stroke="black" stroke-width="2" points="463.93,-226.77 474.52,-227.11 466.45,-220.24 463.93,-226.77"/>
</g>
<!-- PCR -->
<g id="node5" class="node">
<title>PCR</title>
<polygon fill="white" stroke="#2d696a" stroke-width="1.5" points="609.12,-334 609.12,-370 663.12,-370 663.12,-334 609.12,-334"/>
<text text-anchor="middle" x="636.12" y="-345.4" font-family="Arial" font-size="18.00">PCR</text>
</g>
<!-- Pembrolizumab_x9 -->
<g id="node8" class="node">
<title>Pembrolizumab_x9</title>
<polygon fill="white" stroke="#2d696a" stroke-width="1.5" points="724,-334 724,-370 890,-370 890,-334 724,-334"/>
<text text-anchor="middle" x="807" y="-345.4" font-family="Arial" font-size="18.00">Pembrolizumab * 9</text>
</g>
<!-- PCR&#45;&gt;Pembrolizumab_x9 -->
<g id="edge7" class="edge">
<title>PCR&#45;&gt;Pembrolizumab_x9</title>
<path fill="none" stroke="black" stroke-width="2" d="M663.51,-352C676.59,-352 693.26,-352 710.56,-352"/>
<polygon fill="black" stroke="black" stroke-width="2" points="710.51,-355.5 720.51,-352 710.51,-348.5 710.51,-355.5"/>
</g>
<!-- no_further_treatment -->
<g id="node12" class="node">
<title>no_further_treatment</title>
<defs>
<linearGradient id="node12_l_1" gradientUnits="userSpaceOnUse" x1="716.5" y1="-243" x2="897.5" y2="-243" >
<stop offset="0" style="stop-color:#2d696a;stop-opacity:1.;"/>
<stop offset="1" style="stop-color:#6c9a77;stop-opacity:1.;"/>
</linearGradient>
</defs>
<polygon fill="url(#node12_l_1)" stroke="white" stroke-width="1.5" points="716.5,-225 716.5,-261 897.5,-261 897.5,-225 716.5,-225"/>
<text text-anchor="middle" x="807" y="-236.4" font-family="Arial" font-size="18.00" fill="#ffffff">No further Treatment</text>
</g>
<!-- PCR&#45;&gt;no_further_treatment -->
<g id="edge3" class="edge">
<title>PCR&#45;&gt;no_further_treatment</title>
<path fill="none" stroke="black" stroke-width="2" d="M663.38,-333.69C678.74,-323.09 698.59,-309.59 716.5,-298 731.87,-288.05 748.96,-277.45 764.04,-268.23"/>
<polygon fill="black" stroke="black" stroke-width="2" points="765.82,-271.25 772.54,-263.06 762.18,-265.27 765.82,-271.25"/>
</g>
<!-- nonPCR -->
<g id="node6" class="node">
<title>nonPCR</title>
<polygon fill="white" stroke="#2d696a" stroke-width="1.5" points="591.75,-116 591.75,-152 680.5,-152 680.5,-116 591.75,-116"/>
<text text-anchor="middle" x="636.12" y="-127.4" font-family="Arial" font-size="18.00">non&#45;PCR</text>
</g>
<!-- Capecitabine_x8 -->
<g id="node7" class="node">
<title>Capecitabine_x8</title>
<polygon fill="white" stroke="#2d696a" stroke-width="1.5" points="734.12,-116 734.12,-152 879.88,-152 879.88,-116 734.12,-116"/>
<text text-anchor="middle" x="807" y="-127.4" font-family="Arial" font-size="18.00">Capecitabine * 8</text>
</g>
<!-- nonPCR&#45;&gt;Capecitabine_x8 -->
<g id="edge9" class="edge">
<title>nonPCR&#45;&gt;Capecitabine_x8</title>
<path fill="none" stroke="black" stroke-width="2" d="M680.61,-134C693.04,-134 707.02,-134 721.02,-134"/>
<polygon fill="black" stroke="black" stroke-width="2" points="720.81,-137.5 730.81,-134 720.81,-130.5 720.81,-137.5"/>
</g>
<!-- checkBRCA1 -->
<g id="node10" class="node">
<title>checkBRCA1</title>
<defs>
<linearGradient id="node10_l_2" gradientUnits="userSpaceOnUse" x1="743.5" y1="-25" x2="870.5" y2="-25" >
<stop offset="0" style="stop-color:#2d696a;stop-opacity:1.;"/>
<stop offset="1" style="stop-color:#6c9a77;stop-opacity:1.;"/>
</linearGradient>
</defs>
<polygon fill="url(#node10_l_2)" stroke="white" stroke-width="1.5" points="743.5,-7 743.5,-43 870.5,-43 870.5,-7 743.5,-7"/>
<text text-anchor="middle" x="807" y="-18.4" font-family="Arial" font-size="18.00" fill="#ffffff">check BRCA1</text>
</g>
<!-- nonPCR&#45;&gt;checkBRCA1 -->
<g id="edge10" class="edge">
<title>nonPCR&#45;&gt;checkBRCA1</title>
<path fill="none" stroke="black" stroke-width="2" d="M662.59,-115.75C678.02,-104.84 698.2,-90.84 716.5,-79 731.68,-69.18 748.59,-58.82 763.6,-49.84"/>
<polygon fill="black" stroke="black" stroke-width="2" points="765.23,-52.94 772.04,-44.82 761.65,-46.92 765.23,-52.94"/>
</g>
<!-- Surgery&#45;&gt;PCR -->
<g id="edge6" class="edge">
<title>Surgery&#45;&gt;PCR</title>
<path fill="none" stroke="black" stroke-width="2" d="M537.56,-261.49C556.32,-278.9 584.65,-305.18 605.96,-324.94"/>
<polygon fill="black" stroke="black" stroke-width="2" points="603.56,-327.49 613.27,-331.72 608.32,-322.36 603.56,-327.49"/>
</g>
<!-- Surgery&#45;&gt;nonPCR -->
<g id="edge8" class="edge">
<title>Surgery&#45;&gt;nonPCR</title>
<path fill="none" stroke="black" stroke-width="2" d="M537.56,-224.51C556.32,-207.1 584.65,-180.82 605.96,-161.06"/>
<polygon fill="black" stroke="black" stroke-width="2" points="608.32,-163.64 613.27,-154.28 603.56,-158.51 608.32,-163.64"/>
</g>
<!-- olaparib -->
<g id="node11" class="node">
<title>olaparib</title>
<defs>
<linearGradient id="node11_l_3" gradientUnits="userSpaceOnUse" x1="933.5" y1="-25" x2="1034.25" y2="-25" >
<stop offset="0" style="stop-color:#2d696a;stop-opacity:1.;"/>
<stop offset="1" style="stop-color:#6c9a77;stop-opacity:1.;"/>
</linearGradient>
</defs>
<polygon fill="url(#node11_l_3)" stroke="none" stroke-width="1.5" points="1034.25,-50 933.5,-50 933.5,0 1034.25,0 1034.25,-50"/>
<text text-anchor="start" x="941.5" y="-28.9" font-family="Arial" font-size="18.00" fill="#ffffff">olaparib</text>
<text text-anchor="start" x="941.5" y="-7.9" font-family="Arial" font-size="18.00" fill="#ffffff"> (OlympiA)</text>
</g>
<!-- checkBRCA1&#45;&gt;olaparib -->
<g id="edge11" class="edge">
<title>checkBRCA1&#45;&gt;olaparib</title>
<path fill="none" stroke="black" stroke-width="2" d="M870.64,-25C886.96,-25 904.53,-25 920.82,-25"/>
<polygon fill="black" stroke="black" stroke-width="2" points="920.53,-28.5 930.53,-25 920.53,-21.5 920.53,-28.5"/>
</g>
</g>
</svg>
