<?xml version="1.0" encoding="UTF-8" standalone="no"?>
<!DOCTYPE svg PUBLIC "-//W3C//DTD SVG 1.1//EN"
 "http://www.w3.org/Graphics/SVG/1.1/DTD/svg11.dtd">
<!-- Generated by graphviz version 9.0.0 (20230911.1827)
 -->
<!-- Pages: 1 -->
<svg width="726pt" height="143pt"
 viewBox="0.00 0.00 726.00 142.75" xmlns="http://www.w3.org/2000/svg" xmlns:xlink="http://www.w3.org/1999/xlink">
<g id="graph0" class="graph" transform="scale(1 1) rotate(0) translate(4 138.75)">
<polygon fill="white" stroke="none" points="-4,4 -4,-138.75 722,-138.75 722,4 -4,4"/>
<!-- node_C -->
<g id="node1" class="node">
<title>node_C</title>
<polygon fill="white" stroke="#2d696a" points="438.5,-33 438.5,-101.75 527.25,-101.75 527.25,-33 438.5,-33"/>
<text text-anchor="middle" x="482.88" y="-59.65" font-family="Inter-Medium" font-size="18.00"> Surgery </text>
</g>
<!-- end -->
<g id="node4" class="node">
<title>end</title>
<polygon fill="white" stroke="white" stroke-width="0" points="563.25,-25.38 563.25,-109.38 718,-109.38 718,-25.38 563.25,-25.38"/>
<text text-anchor="middle" x="640.62" y="-88.28" font-family="Inter-Medium" font-size="18.00">✓ Follow&#45;up</text>
<polyline fill="none" stroke="white" stroke-width="0" points="563.25,-78.88 718,-78.88"/>
<text text-anchor="middle" x="640.62" y="-57.77" font-family="Inter-Medium" font-size="18.00">Adj permitted</text>
<polyline fill="none" stroke="white" stroke-width="0" points="563.25,-52.12 718,-52.12"/>
<text text-anchor="middle" x="640.62" y="-31.02" font-family="Inter-Medium" font-size="18.00">⊗ pembrolizumab</text>
</g>
<!-- node_C&#45;&gt;end -->
<g id="edge3" class="edge">
<title>node_C&#45;&gt;end</title>
<path fill="none" stroke="#2d696a" stroke-width="1.5" d="M527.67,-67.38C535.17,-67.38 543.19,-67.38 551.37,-67.38"/>
<polygon fill="#2d696a" stroke="#2d696a" stroke-width="1.5" points="551.14,-70.88 561.14,-67.38 551.14,-63.88 551.14,-70.88"/>
</g>
<!-- node_B -->
<g id="node2" class="node">
<title>node_B</title>
<defs>
<linearGradient id="node2_l_0" gradientUnits="userSpaceOnUse" x1="178" y1="-67.38" x2="402.5" y2="-67.38" >
<stop offset="0" style="stop-color:#2d696a;stop-opacity:1.;"/>
<stop offset="1" style="stop-color:#6c9a77;stop-opacity:1.;"/>
</linearGradient>
</defs>
<polygon fill="url(#node2_l_0)" stroke="white" points="178,-13.88 178,-120.88 402.5,-120.88 402.5,-13.88 178,-13.88"/>
<text text-anchor="middle" x="290.25" y="-99.78" font-family="Inter-Medium" font-size="18.00" fill="#ffffff">Carboplatin AUC 6</text>
<polyline fill="none" stroke="white" points="178,-94.12 402.5,-94.12"/>
<text text-anchor="middle" x="290.25" y="-73.03" font-family="Inter-Medium" font-size="18.00" fill="#ffffff">Docetaxel 75mg/m²</text>
<polyline fill="none" stroke="white" points="178,-67.38 402.5,-67.38"/>
<text text-anchor="middle" x="290.25" y="-46.27" font-family="Inter-Medium" font-size="18.00" fill="#ffffff">  Pembrolizumab 200 mg  </text>
<polyline fill="none" stroke="white" points="178,-40.62 402.5,-40.62"/>
<text text-anchor="middle" x="241.38" y="-19.52" font-family="Inter-Medium" font-size="18.00" fill="#ffffff">Q 21 Days</text>
<polyline fill="none" stroke="white" points="304.75,-13.88 304.75,-40.62"/>
<text text-anchor="middle" x="353.5" y="-19.52" font-family="Inter-Medium" font-size="18.00" fill="#ffffff">6 cycle</text>
</g>
<!-- node_B&#45;&gt;node_C -->
<g id="edge2" class="edge">
<title>node_B&#45;&gt;node_C</title>
<path fill="none" stroke="#2d696a" stroke-width="1.5" d="M402.96,-67.38C410.88,-67.38 418.63,-67.38 426.01,-67.38"/>
<polygon fill="#2d696a" stroke="#2d696a" stroke-width="1.5" points="425.75,-70.88 435.75,-67.38 425.75,-63.88 425.75,-70.88"/>
</g>
<!-- start -->
<g id="node3" class="node">
<title>start</title>
<polygon fill="white" stroke="white" stroke-width="0" points="0,-0.5 0,-134.25 142,-134.25 142,-0.5 0,-0.5"/>
<text text-anchor="middle" x="71" y="-113.15" font-family="Inter-Medium" font-size="18.00">Pt ∈ I&#45;III TNBC</text>
<polyline fill="none" stroke="white" stroke-width="0" points="0,-107.5 142,-107.5"/>
<text text-anchor="middle" x="71" y="-86.4" font-family="Inter-Medium" font-size="18.00">T ≥ 1 cm or N ⊕</text>
<polyline fill="none" stroke="white" stroke-width="0" points="0,-80.75 142,-80.75"/>
<text text-anchor="middle" x="71" y="-59.65" font-family="Inter-Medium" font-size="18.00">ER/PR ≤ 10%</text>
<polyline fill="none" stroke="white" stroke-width="0" points="0,-54 142,-54"/>
<text text-anchor="middle" x="71" y="-32.9" font-family="Inter-Medium" font-size="18.00">HER2 ⊖</text>
<polyline fill="none" stroke="white" stroke-width="0" points="0,-27.25 142,-27.25"/>
<text text-anchor="middle" x="71" y="-6.15" font-family="Inter-Medium" font-size="18.00">(N = 115)</text>
</g>
<!-- start&#45;&gt;node_B -->
<g id="edge1" class="edge">
<title>start&#45;&gt;node_B</title>
<path fill="none" stroke="#2d696a" stroke-width="1.5" d="M141.94,-67.38C149.51,-67.38 157.38,-67.38 165.36,-67.38"/>
<polygon fill="#2d696a" stroke="#2d696a" stroke-width="1.5" points="165.26,-70.88 175.26,-67.38 165.26,-63.88 165.26,-70.88"/>
</g>
</g>
</svg>
