<?xml version="1.0" encoding="UTF-8" standalone="no"?>
<!DOCTYPE svg PUBLIC "-//W3C//DTD SVG 1.1//EN"
 "http://www.w3.org/Graphics/SVG/1.1/DTD/svg11.dtd">
<!-- Generated by graphviz version 9.0.0 (20230911.1827)
 -->
<!-- Pages: 1 -->
<svg width="1083pt" height="212pt"
 viewBox="0.00 0.00 1082.75 211.50" xmlns="http://www.w3.org/2000/svg" xmlns:xlink="http://www.w3.org/1999/xlink">
<g id="graph0" class="graph" transform="scale(1 1) rotate(0) translate(4 207.5)">
<polygon fill="white" stroke="none" points="-4,4 -4,-207.5 1078.75,-207.5 1078.75,4 -4,4"/>
<text text-anchor="middle" x="537.38" y="-30.7" font-family="FiraSans-SemiBoldItalic" font-size="24.00">Stage: IIA T1N1M0 T2N0M0</text>
<text text-anchor="middle" x="537.38" y="-5.95" font-family="FiraSans-SemiBoldItalic" font-size="24.00">Stage IIB: T2N1M0</text>
<!-- AC -->
<g id="node1" class="node">
<title>AC</title>
<polygon fill="white" stroke="#2d696a" stroke-width="1.5" points="0,-112 0,-148 54,-148 54,-112 0,-112"/>
<text text-anchor="middle" x="27" y="-123.4" font-family="Arial" font-size="18.00">AC</text>
</g>
<!-- Pembrolizumab_x4 -->
<g id="node2" class="node">
<title>Pembrolizumab_x4</title>
<polygon fill="white" stroke="#2d696a" stroke-width="1.5" points="90,-112 90,-148 256,-148 256,-112 90,-112"/>
<text text-anchor="middle" x="173" y="-123.4" font-family="Arial" font-size="18.00">Pembrolizumab * 4</text>
</g>
<!-- AC&#45;&gt;Pembrolizumab_x4 -->
<g id="edge1" class="edge">
<title>AC&#45;&gt;Pembrolizumab_x4</title>
<path fill="none" stroke="black" stroke-width="2" d="M54.41,-130C61.13,-130 68.74,-130 76.78,-130"/>
<polygon fill="black" stroke="black" stroke-width="2" points="76.69,-133.5 86.69,-130 76.69,-126.5 76.69,-133.5"/>
</g>
<!-- Taxotere_CDDP -->
<g id="node3" class="node">
<title>Taxotere_CDDP</title>
<polygon fill="white" stroke="#2d696a" stroke-width="1.5" points="292,-112 292,-148 431.75,-148 431.75,-112 292,-112"/>
<text text-anchor="middle" x="361.88" y="-123.4" font-family="Arial" font-size="18.00">Taxotere/CDDP</text>
</g>
<!-- Pembrolizumab_x4&#45;&gt;Taxotere_CDDP -->
<g id="edge2" class="edge">
<title>Pembrolizumab_x4&#45;&gt;Taxotere_CDDP</title>
<path fill="none" stroke="black" stroke-width="2" d="M256.24,-130C263.74,-130 271.33,-130 278.83,-130"/>
<polygon fill="black" stroke="black" stroke-width="2" points="278.71,-133.5 288.71,-130 278.71,-126.5 278.71,-133.5"/>
</g>
<!-- Pembrolizumab_x4_again -->
<g id="node4" class="node">
<title>Pembrolizumab_x4_again</title>
<polygon fill="white" stroke="#2d696a" stroke-width="1.5" points="467.75,-112 467.75,-148 633.75,-148 633.75,-112 467.75,-112"/>
<text text-anchor="middle" x="550.75" y="-123.4" font-family="Arial" font-size="18.00">Pembrolizumab * 4</text>
</g>
<!-- Taxotere_CDDP&#45;&gt;Pembrolizumab_x4_again -->
<g id="edge3" class="edge">
<title>Taxotere_CDDP&#45;&gt;Pembrolizumab_x4_again</title>
<path fill="none" stroke="black" stroke-width="2" d="M432.19,-130C439.43,-130 446.86,-130 454.32,-130"/>
<polygon fill="black" stroke="black" stroke-width="2" points="454.25,-133.5 464.25,-130 454.25,-126.5 454.25,-133.5"/>
</g>
<!-- Surgery -->
<g id="node9" class="node">
<title>Surgery</title>
<defs>
<linearGradient id="node9_l_0" gradientUnits="userSpaceOnUse" x1="669.75" y1="-130" x2="748" y2="-130" >
<stop offset="0" style="stop-color:#2d696a;stop-opacity:1.;"/>
<stop offset="1" style="stop-color:#6c9a77;stop-opacity:1.;"/>
</linearGradient>
</defs>
<polygon fill="url(#node9_l_0)" stroke="white" stroke-width="1.5" points="669.75,-112 669.75,-148 748,-148 748,-112 669.75,-112"/>
<text text-anchor="middle" x="708.88" y="-123.4" font-family="Arial" font-size="18.00" fill="#ffffff">Surgery</text>
</g>
<!-- Pembrolizumab_x4_again&#45;&gt;Surgery -->
<g id="edge4" class="edge">
<title>Pembrolizumab_x4_again&#45;&gt;Surgery</title>
<path fill="none" stroke="black" stroke-width="2" d="M633.93,-130C641.54,-130 649.11,-130 656.33,-130"/>
<polygon fill="black" stroke="black" stroke-width="2" points="656.27,-133.5 666.27,-130 656.27,-126.5 656.27,-133.5"/>
</g>
<!-- PCR -->
<g id="node5" class="node">
<title>PCR</title>
<polygon fill="white" stroke="#2d696a" stroke-width="1.5" points="801.38,-167 801.38,-203 855.38,-203 855.38,-167 801.38,-167"/>
<text text-anchor="middle" x="828.38" y="-178.4" font-family="Arial" font-size="18.00">PCR</text>
</g>
<!-- Pembrolizumab_x9 -->
<g id="node8" class="node">
<title>Pembrolizumab_x9</title>
<polygon fill="white" stroke="#2d696a" stroke-width="1.5" points="908.75,-167 908.75,-203 1074.75,-203 1074.75,-167 908.75,-167"/>
<text text-anchor="middle" x="991.75" y="-178.4" font-family="Arial" font-size="18.00">Pembrolizumab * 9</text>
</g>
<!-- PCR&#45;&gt;Pembrolizumab_x9 -->
<g id="edge6" class="edge">
<title>PCR&#45;&gt;Pembrolizumab_x9</title>
<path fill="none" stroke="black" stroke-width="2" d="M855.66,-185C866.92,-185 880.83,-185 895.39,-185"/>
<polygon fill="black" stroke="black" stroke-width="2" points="895.28,-188.5 905.28,-185 895.28,-181.5 895.28,-188.5"/>
</g>
<!-- nonPCR -->
<g id="node6" class="node">
<title>nonPCR</title>
<polygon fill="white" stroke="#2d696a" stroke-width="1.5" points="784,-58 784,-94 872.75,-94 872.75,-58 784,-58"/>
<text text-anchor="middle" x="828.38" y="-69.4" font-family="Arial" font-size="18.00">non&#45;PCR</text>
</g>
<!-- Capecitabine_x8 -->
<g id="node7" class="node">
<title>Capecitabine_x8</title>
<polygon fill="white" stroke="#2d696a" stroke-width="1.5" points="918.88,-58 918.88,-94 1064.62,-94 1064.62,-58 918.88,-58"/>
<text text-anchor="middle" x="991.75" y="-69.4" font-family="Arial" font-size="18.00">Capecitabine * 8</text>
</g>
<!-- nonPCR&#45;&gt;Capecitabine_x8 -->
<g id="edge8" class="edge">
<title>nonPCR&#45;&gt;Capecitabine_x8</title>
<path fill="none" stroke="black" stroke-width="2" d="M873.05,-76C883.22,-76 894.39,-76 905.68,-76"/>
<polygon fill="black" stroke="black" stroke-width="2" points="905.4,-79.5 915.4,-76 905.4,-72.5 905.4,-79.5"/>
</g>
<!-- Surgery&#45;&gt;PCR -->
<g id="edge5" class="edge">
<title>Surgery&#45;&gt;PCR</title>
<path fill="none" stroke="black" stroke-width="2" d="M748.35,-148.01C761.57,-154.2 776.35,-161.12 789.52,-167.28"/>
<polygon fill="black" stroke="black" stroke-width="2" points="787.79,-170.34 798.33,-171.41 790.76,-164 787.79,-170.34"/>
</g>
<!-- Surgery&#45;&gt;nonPCR -->
<g id="edge7" class="edge">
<title>Surgery&#45;&gt;nonPCR</title>
<path fill="none" stroke="black" stroke-width="2" d="M748.35,-112.32C757,-108.34 766.33,-104.05 775.43,-99.87"/>
<polygon fill="black" stroke="black" stroke-width="2" points="776.82,-103.08 784.45,-95.73 773.9,-96.72 776.82,-103.08"/>
</g>
</g>
</svg>
