<?xml version="1.0" encoding="UTF-8" standalone="no"?>
<!DOCTYPE svg PUBLIC "-//W3C//DTD SVG 1.1//EN"
 "http://www.w3.org/Graphics/SVG/1.1/DTD/svg11.dtd">
<!-- Generated by graphviz version 9.0.0 (20230911.1827)
 -->
<!-- Pages: 1 -->
<svg width="366pt" height="305pt"
 viewBox="0.00 0.00 365.75 305.00" xmlns="http://www.w3.org/2000/svg" xmlns:xlink="http://www.w3.org/1999/xlink">
<g id="graph0" class="graph" transform="scale(1 1) rotate(0) translate(4 301)">
<polygon fill="white" stroke="none" points="-4,4 -4,-301 361.75,-301 361.75,4 -4,4"/>
<!-- start -->
<g id="node1" class="node">
<title>start</title>
<polygon fill="none" stroke="#2d696a" stroke-width="1.5" points="0,-84 0,-213 170.5,-213 170.5,-84 0,-84"/>
<text text-anchor="middle" x="85.25" y="-191.9" font-family="Arial" font-size="18.00">N=3,170</text>
<polyline fill="none" stroke="#2d696a" stroke-width="1.5" points="0,-184 170.5,-184"/>
<text text-anchor="middle" x="85.25" y="-162.9" font-family="Arial" font-size="18.00">Node Positive</text>
<polyline fill="none" stroke="#2d696a" stroke-width="1.5" points="0,-155 170.5,-155"/>
<text text-anchor="middle" x="85.25" y="-133.9" font-family="Arial" font-size="18.00">Stratification: </text>
<text text-anchor="middle" x="85.25" y="-112.9" font-family="Arial" font-size="18.00">Premenopausal</text>
<text text-anchor="middle" x="85.25" y="-91.9" font-family="Arial" font-size="18.00"> &amp; Postmenopausal</text>
</g>
<!-- group1 -->
<g id="node2" class="node">
<title>group1</title>
<polygon fill="none" stroke="#2d696a" stroke-width="1.5" points="206.5,-246.5 206.5,-296.5 264.5,-296.5 264.5,-246.5 206.5,-246.5"/>
<text text-anchor="middle" x="235.5" y="-275.4" font-family="Arial" font-size="18.00">A60</text>
<text text-anchor="middle" x="235.5" y="-254.4" font-family="Arial" font-size="18.00">C x 4</text>
</g>
<!-- start&#45;&gt;group1 -->
<g id="edge1" class="edge">
<title>start&#45;&gt;group1</title>
<path fill="none" stroke="black" stroke-width="4" d="M164.28,-213.24C174.64,-221.84 184.9,-230.35 194.24,-238.1"/>
<polygon fill="black" stroke="black" stroke-width="4" points="191.75,-240.58 201.68,-244.27 196.22,-235.19 191.75,-240.58"/>
</g>
<!-- group2 -->
<g id="node3" class="node">
<title>group2</title>
<polygon fill="none" stroke="#2d696a" stroke-width="1.5" points="206.5,-123.5 206.5,-173.5 264.5,-173.5 264.5,-123.5 206.5,-123.5"/>
<text text-anchor="middle" x="235.5" y="-152.4" font-family="Arial" font-size="18.00">A75</text>
<text text-anchor="middle" x="235.5" y="-131.4" font-family="Arial" font-size="18.00">C x 4</text>
</g>
<!-- start&#45;&gt;group2 -->
<g id="edge2" class="edge">
<title>start&#45;&gt;group2</title>
<path fill="none" stroke="black" stroke-width="4" d="M170.77,-148.5C177.44,-148.5 184,-148.5 190.22,-148.5"/>
<polygon fill="black" stroke="black" stroke-width="4" points="190.15,-152 200.15,-148.5 190.15,-145 190.15,-152"/>
</g>
<!-- group3 -->
<g id="node4" class="node">
<title>group3</title>
<polygon fill="none" stroke="#2d696a" stroke-width="1.5" points="206.5,-0.5 206.5,-50.5 264.5,-50.5 264.5,-0.5 206.5,-0.5"/>
<text text-anchor="middle" x="235.5" y="-29.4" font-family="Arial" font-size="18.00">A90</text>
<text text-anchor="middle" x="235.5" y="-8.4" font-family="Arial" font-size="18.00">C x 4</text>
</g>
<!-- start&#45;&gt;group3 -->
<g id="edge3" class="edge">
<title>start&#45;&gt;group3</title>
<path fill="none" stroke="black" stroke-width="4" d="M164.28,-83.76C174.64,-75.16 184.9,-66.65 194.24,-58.9"/>
<polygon fill="black" stroke="black" stroke-width="4" points="196.22,-61.81 201.68,-52.73 191.75,-56.42 196.22,-61.81"/>
</g>
<!-- group1P -->
<g id="node5" class="node">
<title>group1P</title>
<polygon fill="none" stroke="#2d696a" stroke-width="1.5" points="300.5,-253.5 300.5,-289.5 357.75,-289.5 357.75,-253.5 300.5,-253.5"/>
<text text-anchor="middle" x="329.12" y="-264.9" font-family="Arial" font-size="18.00">P x 4</text>
</g>
<!-- group1&#45;&gt;group1P -->
<g id="edge4" class="edge">
<title>group1&#45;&gt;group1P</title>
<path fill="none" stroke="black" stroke-width="4" d="M264.99,-271.5C271.14,-271.5 277.77,-271.5 284.35,-271.5"/>
<polygon fill="black" stroke="black" stroke-width="4" points="284.23,-275 294.23,-271.5 284.23,-268 284.23,-275"/>
</g>
<!-- group2P -->
<g id="node6" class="node">
<title>group2P</title>
<polygon fill="none" stroke="#2d696a" stroke-width="1.5" points="300.5,-130.5 300.5,-166.5 357.75,-166.5 357.75,-130.5 300.5,-130.5"/>
<text text-anchor="middle" x="329.12" y="-141.9" font-family="Arial" font-size="18.00">P x 4</text>
</g>
<!-- group2&#45;&gt;group2P -->
<g id="edge5" class="edge">
<title>group2&#45;&gt;group2P</title>
<path fill="none" stroke="black" stroke-width="4" d="M264.99,-148.5C271.14,-148.5 277.77,-148.5 284.35,-148.5"/>
<polygon fill="black" stroke="black" stroke-width="4" points="284.23,-152 294.23,-148.5 284.23,-145 284.23,-152"/>
</g>
<!-- group3_noP -->
<g id="node7" class="node">
<title>group3_noP</title>
<defs>
<linearGradient id="node7_l_0" gradientUnits="userSpaceOnUse" x1="301.25" y1="-25.5" x2="357" y2="-25.5" >
<stop offset="0" style="stop-color:#2d696a;stop-opacity:1.;"/>
<stop offset="1" style="stop-color:#6c9a77;stop-opacity:1.;"/>
</linearGradient>
</defs>
<polygon fill="url(#node7_l_0)" stroke="white" stroke-width="1.5" points="301.25,-7.5 301.25,-43.5 357,-43.5 357,-7.5 301.25,-7.5"/>
<text text-anchor="middle" x="329.12" y="-18.9" font-family="Arial" font-size="18.00" fill="#ffffff">No P</text>
</g>
<!-- group3&#45;&gt;group3_noP -->
<g id="edge6" class="edge">
<title>group3&#45;&gt;group3_noP</title>
<path fill="none" stroke="black" stroke-width="4" d="M264.99,-25.5C271.34,-25.5 278.21,-25.5 285.01,-25.5"/>
<polygon fill="black" stroke="black" stroke-width="4" points="284.85,-29 294.85,-25.5 284.85,-22 284.85,-29"/>
</g>
</g>
</svg>
