<?xml version="1.0" encoding="UTF-8" standalone="no"?>
<!DOCTYPE svg PUBLIC "-//W3C//DTD SVG 1.1//EN"
 "http://www.w3.org/Graphics/SVG/1.1/DTD/svg11.dtd">
<!-- Generated by graphviz version 9.0.0 (20230911.1827)
 -->
<!-- Pages: 1 -->
<svg width="833pt" height="169pt"
 viewBox="0.00 0.00 833.00 168.50" xmlns="http://www.w3.org/2000/svg" xmlns:xlink="http://www.w3.org/1999/xlink">
<g id="graph0" class="graph" transform="scale(1 1) rotate(0) translate(4 164.5)">
<polygon fill="white" stroke="none" points="-4,4 -4,-164.5 829,-164.5 829,4 -4,4"/>
<g id="clust1" class="cluster">
<title>cluster_example</title>
<polygon fill="none" stroke="white" points="8,-34.5 8,-152.5 392,-152.5 392,-34.5 8,-34.5"/>
<text text-anchor="middle" x="200" y="-116.2" font-family="FiraSans-SemiBoldItalic" font-size="34.00" fill="#2d696a">Neoadjuvant</text>
</g>
<!-- AC -->
<g id="node1" class="node">
<title>AC</title>
<polygon fill="white" stroke="#2d696a" stroke-width="1.5" points="16,-43.5 16,-101.5 182,-101.5 182,-43.5 16,-43.5"/>
<text text-anchor="middle" x="99" y="-80.4" font-family="Arial" font-size="18.00">AC</text>
<polyline fill="none" stroke="#2d696a" stroke-width="1.5" points="16,-72.5 182,-72.5"/>
<text text-anchor="middle" x="99" y="-51.4" font-family="Arial" font-size="18.00">Pembrolizumab * 4</text>
</g>
<!-- Taxotere_CDDP -->
<g id="node2" class="node">
<title>Taxotere_CDDP</title>
<polygon fill="white" stroke="#2d696a" stroke-width="1.5" points="218,-43.5 218,-101.5 384,-101.5 384,-43.5 218,-43.5"/>
<text text-anchor="middle" x="301" y="-80.4" font-family="Arial" font-size="18.00">Taxotere/CDDP</text>
<polyline fill="none" stroke="#2d696a" stroke-width="1.5" points="218,-72.5 384,-72.5"/>
<text text-anchor="middle" x="301" y="-51.4" font-family="Arial" font-size="18.00">Pembrolizumab * 4</text>
</g>
<!-- AC&#45;&gt;Taxotere_CDDP -->
<g id="edge1" class="edge">
<title>AC&#45;&gt;Taxotere_CDDP</title>
<path fill="none" stroke="black" stroke-width="2" d="M182.21,-72.5C189.74,-72.5 197.4,-72.5 205.02,-72.5"/>
<polygon fill="black" stroke="black" stroke-width="2" points="204.76,-76 214.76,-72.5 204.76,-69 204.76,-76"/>
</g>
<!-- Surgery -->
<g id="node7" class="node">
<title>Surgery</title>
<defs>
<linearGradient id="node7_l_0" gradientUnits="userSpaceOnUse" x1="420" y1="-72.5" x2="498.25" y2="-72.5" >
<stop offset="0" style="stop-color:#2d696a;stop-opacity:1.;"/>
<stop offset="1" style="stop-color:#6c9a77;stop-opacity:1.;"/>
</linearGradient>
</defs>
<polygon fill="url(#node7_l_0)" stroke="white" stroke-width="1.5" points="420,-54.5 420,-90.5 498.25,-90.5 498.25,-54.5 420,-54.5"/>
<text text-anchor="middle" x="459.12" y="-65.9" font-family="Arial" font-size="18.00" fill="#ffffff">Surgery</text>
</g>
<!-- Taxotere_CDDP&#45;&gt;Surgery -->
<g id="edge2" class="edge">
<title>Taxotere_CDDP&#45;&gt;Surgery</title>
<path fill="none" stroke="black" stroke-width="2" d="M384.18,-72.5C391.79,-72.5 399.36,-72.5 406.58,-72.5"/>
<polygon fill="black" stroke="black" stroke-width="2" points="406.52,-76 416.52,-72.5 406.52,-69 406.52,-76"/>
</g>
<!-- PCR -->
<g id="node3" class="node">
<title>PCR</title>
<polygon fill="white" stroke="#2d696a" stroke-width="1.5" points="551.62,-109.5 551.62,-145.5 605.62,-145.5 605.62,-109.5 551.62,-109.5"/>
<text text-anchor="middle" x="578.62" y="-120.9" font-family="Arial" font-size="18.00">PCR</text>
</g>
<!-- Pembrolizumab_x9 -->
<g id="node6" class="node">
<title>Pembrolizumab_x9</title>
<polygon fill="white" stroke="#2d696a" stroke-width="1.5" points="659,-109.5 659,-145.5 825,-145.5 825,-109.5 659,-109.5"/>
<text text-anchor="middle" x="742" y="-120.9" font-family="Arial" font-size="18.00">Pembrolizumab * 9</text>
</g>
<!-- PCR&#45;&gt;Pembrolizumab_x9 -->
<g id="edge4" class="edge">
<title>PCR&#45;&gt;Pembrolizumab_x9</title>
<path fill="none" stroke="black" stroke-width="2" d="M605.91,-127.5C617.17,-127.5 631.08,-127.5 645.64,-127.5"/>
<polygon fill="black" stroke="black" stroke-width="2" points="645.53,-131 655.53,-127.5 645.53,-124 645.53,-131"/>
</g>
<!-- nonPCR -->
<g id="node4" class="node">
<title>nonPCR</title>
<polygon fill="white" stroke="#2d696a" stroke-width="1.5" points="534.25,-0.5 534.25,-36.5 623,-36.5 623,-0.5 534.25,-0.5"/>
<text text-anchor="middle" x="578.62" y="-11.9" font-family="Arial" font-size="18.00">non&#45;PCR</text>
</g>
<!-- Capecitabine_x8 -->
<g id="node5" class="node">
<title>Capecitabine_x8</title>
<polygon fill="white" stroke="#2d696a" stroke-width="1.5" points="669.12,-0.5 669.12,-36.5 814.88,-36.5 814.88,-0.5 669.12,-0.5"/>
<text text-anchor="middle" x="742" y="-11.9" font-family="Arial" font-size="18.00">Capecitabine * 8</text>
</g>
<!-- nonPCR&#45;&gt;Capecitabine_x8 -->
<g id="edge6" class="edge">
<title>nonPCR&#45;&gt;Capecitabine_x8</title>
<path fill="none" stroke="black" stroke-width="2" d="M623.3,-18.5C633.47,-18.5 644.64,-18.5 655.93,-18.5"/>
<polygon fill="black" stroke="black" stroke-width="2" points="655.65,-22 665.65,-18.5 655.65,-15 655.65,-22"/>
</g>
<!-- Surgery&#45;&gt;PCR -->
<g id="edge3" class="edge">
<title>Surgery&#45;&gt;PCR</title>
<path fill="none" stroke="black" stroke-width="2" d="M498.6,-90.51C511.82,-96.7 526.6,-103.62 539.77,-109.78"/>
<polygon fill="black" stroke="black" stroke-width="2" points="538.04,-112.84 548.58,-113.91 541.01,-106.5 538.04,-112.84"/>
</g>
<!-- Surgery&#45;&gt;nonPCR -->
<g id="edge5" class="edge">
<title>Surgery&#45;&gt;nonPCR</title>
<path fill="none" stroke="black" stroke-width="2" d="M498.6,-54.82C507.25,-50.84 516.58,-46.55 525.68,-42.37"/>
<polygon fill="black" stroke="black" stroke-width="2" points="527.07,-45.58 534.7,-38.23 524.15,-39.22 527.07,-45.58"/>
</g>
</g>
</svg>
