<?xml version="1.0" standalone="no"?>
<!DOCTYPE svg PUBLIC "-//W3C//DTD SVG 20010904//EN"
 "http://www.w3.org/TR/2001/REC-SVG-20010904/DTD/svg10.dtd">
<svg version="1.0" xmlns="http://www.w3.org/2000/svg"
 width="400.000000pt" height="400.000000pt" viewBox="0 0 400.000000 400.000000"
 preserveAspectRatio="xMidYMid meet">
<metadata>
Created by potrace 1.14, written by Peter Selinger 2001-2017
</metadata>
<g transform="translate(0.000000,400.000000) scale(0.100000,-0.100000)"
fill="#000000" stroke="none">
<path d="M0 2964 c0 -922 2 -1037 15 -1051 14 -14 15 -13 9 12 -6 24 -4 27 9
22 9 -3 19 -2 22 2 3 5 -2 11 -10 15 -8 3 -15 12 -15 20 0 8 -6 17 -12 19 -9
4 -6 11 9 24 19 16 22 29 24 123 2 73 7 114 18 134 12 22 13 30 4 33 -15 5
-18 50 -4 55 4 2 11 14 15 28 6 19 5 21 -3 10 -10 -14 -11 -13 -11 15 0 3 2 4
4 3 10 -7 54 46 49 58 -3 8 0 21 7 29 7 9 10 27 6 45 -4 22 -1 32 9 36 8 4 15
15 15 25 0 10 4 19 8 19 5 0 15 23 22 50 8 28 22 58 32 67 10 9 18 13 18 9 0
-4 9 -2 20 4 11 6 20 18 20 26 0 9 9 27 20 41 11 14 20 23 20 19 0 -3 9 3 20
14 12 12 17 26 13 36 -5 14 -2 16 20 10 20 -5 27 -3 27 9 0 8 -4 15 -10 15 -5
0 -10 5 -10 10 0 6 6 10 14 10 24 0 67 60 60 83 -5 16 -3 19 10 14 10 -4 16
-1 16 9 0 9 18 36 40 61 22 25 40 50 40 55 0 15 43 47 63 48 9 0 17 7 17 15 0
8 9 20 20 27 11 7 20 17 20 23 1 5 15 19 32 30 17 11 32 25 32 30 0 6 18 22
40 37 59 38 96 73 96 91 0 9 9 19 20 22 11 3 20 15 20 26 0 10 4 19 10 19 5 0
27 16 49 35 21 19 44 35 50 35 7 0 11 8 9 17 -2 12 6 19 27 23 17 3 30 11 30
20 0 7 23 25 50 39 28 14 59 35 70 47 11 12 29 24 40 28 11 3 33 17 50 32 18
15 37 23 49 20 12 -3 26 4 38 20 11 13 29 24 40 24 18 0 76 27 88 41 9 11 69
39 83 39 8 0 20 7 27 15 11 13 -80 15 -809 15 l-821 0 0 -1036z"/>
<path d="M3818 3993 c12 -2 22 -9 22 -14 0 -5 8 -8 18 -7 39 3 61 -3 96 -27
20 -14 39 -25 41 -25 3 0 5 18 5 40 l0 40 -102 -1 c-57 -1 -93 -4 -80 -6z"/>
<path d="M1566 3251 c-3 -5 2 -15 12 -22 15 -12 16 -12 5 2 -7 9 -10 19 -6 22
3 4 4 7 0 7 -3 0 -8 -4 -11 -9z"/>
<path d="M1602 3246 c7 -8 15 -11 18 -7 3 3 9 9 14 14 5 4 -3 7 -18 7 -22 0
-25 -2 -14 -14z"/>
<path d="M1641 3233 c-15 -17 -11 -16 30 2 31 13 31 14 8 13 -14 -1 -31 -8
-38 -15z"/>
<path d="M1720 3216 c0 -2 7 -7 16 -10 8 -3 12 -2 9 4 -6 10 -25 14 -25 6z"/>
<path d="M1740 3186 c0 -2 7 -7 16 -10 8 -3 12 -2 9 4 -6 10 -25 14 -25 6z"/>
<path d="M1959 3154 c-7 -9 -30 -23 -51 -31 -47 -19 -45 -26 3 -12 18 6 42 22
52 35 20 27 17 33 -4 8z"/>
<path d="M1658 3153 c-10 -2 -18 -9 -18 -14 0 -6 4 -8 9 -4 5 3 12 1 16 -5 3
-5 -1 -10 -9 -10 -9 0 -16 -9 -16 -20 0 -15 7 -20 27 -20 25 0 26 0 8 -20 -18
-19 -17 -20 6 -20 13 0 31 5 39 11 13 9 12 10 -2 5 -10 -3 -18 -1 -18 4 0 6 5
10 10 10 6 0 10 10 9 23 0 12 -3 16 -6 10 -2 -7 -9 -13 -14 -13 -6 0 -7 5 -4
10 3 6 -1 10 -9 10 -9 0 -16 -5 -16 -11 0 -5 -5 -7 -11 -3 -8 5 -6 10 5 16 9
5 13 14 10 20 -4 6 0 14 7 19 15 9 6 10 -23 2z"/>
<path d="M2280 3145 c-7 -8 -16 -13 -20 -10 -18 11 -100 16 -100 5 0 -5 -7
-10 -15 -10 -8 0 -15 -4 -15 -10 0 -5 -14 -13 -32 -18 -17 -4 -34 -14 -36 -22
-4 -10 0 -11 14 -5 69 29 103 36 141 31 54 -7 117 -49 136 -89 17 -36 31 -97
23 -97 -3 0 -12 15 -21 33 -23 47 -36 62 -70 79 -78 39 -132 31 -224 -37 -34
-25 -61 -40 -61 -33 0 10 -6 5 -52 -51 -18 -21 -48 -29 -48 -12 0 12 98 112
125 128 15 9 16 12 4 12 -8 1 -25 -8 -37 -19 -12 -11 -25 -20 -31 -20 -5 0
-11 -7 -15 -15 -3 -8 -13 -15 -22 -15 -10 0 -14 -5 -11 -14 6 -16 -16 -40 -27
-29 -3 4 -13 -2 -21 -13 -14 -19 -14 -19 -15 1 0 32 121 137 174 151 14 3 26
12 26 19 0 7 6 15 13 18 6 2 9 8 4 13 -4 4 -14 -2 -23 -14 -8 -12 -20 -22 -26
-22 -6 0 -32 -16 -58 -35 -26 -19 -53 -35 -59 -35 -6 0 -11 -6 -11 -14 0 -17
-27 -29 -35 -16 -4 6 -14 10 -23 9 -12 0 -11 -3 6 -9 12 -5 22 -14 22 -20 0
-17 -29 -23 -45 -10 -9 7 -18 10 -22 6 -3 -3 -1 -6 5 -6 7 0 12 -7 12 -15 0
-8 7 -15 15 -15 8 0 15 -4 15 -10 0 -14 -28 -12 -33 3 -3 9 -8 8 -22 -3 -10
-8 -16 -10 -12 -3 4 6 1 13 -5 16 -10 3 -10 7 1 20 9 12 10 17 2 17 -6 0 -14
-14 -18 -30 -5 -27 -9 -30 -32 -26 -31 7 -60 -13 -58 -38 1 -11 -4 -21 -11
-24 -10 -3 -13 4 -10 24 2 24 -1 30 -19 32 -13 2 -23 -2 -23 -8 0 -8 -10 -10
-25 -8 -27 6 -41 -5 -30 -22 5 -8 11 -8 20 0 9 7 16 6 25 -5 7 -8 21 -15 31
-15 12 0 19 -7 19 -20 0 -23 -28 -27 -36 -5 -4 8 -10 12 -15 9 -6 -3 -16 0
-24 6 -8 6 -18 9 -24 6 -16 -11 -39 22 -35 51 l4 28 -12 -27 c-7 -16 -15 -28
-20 -28 -4 0 -8 -4 -8 -10 0 -5 9 -10 20 -10 11 0 23 -6 26 -14 3 -8 15 -11
31 -8 20 4 24 2 18 -8 -6 -10 -4 -12 8 -7 8 3 21 0 27 -8 14 -17 39 -8 49 18
8 20 61 34 61 16 0 -6 5 -7 10 -4 6 4 17 1 25 -5 13 -10 15 -8 15 14 0 25 -20
39 -20 14 -1 -8 -6 -6 -14 5 -8 10 -20 15 -30 11 -20 -8 -21 9 -2 25 11 10 17
8 25 -6 11 -17 11 -17 22 0 8 14 14 15 24 7 8 -6 11 -18 8 -26 -3 -8 0 -14 6
-14 6 0 11 5 11 10 0 13 27 13 35 -1 4 -6 -2 -13 -13 -16 -20 -5 -20 -5 -1
-24 23 -23 37 -25 18 -3 -10 12 -10 17 0 23 16 10 62 1 55 -10 -3 -5 -10 -7
-15 -4 -5 4 -9 1 -9 -4 0 -6 10 -11 21 -11 16 0 20 -5 16 -20 -4 -16 1 -20 32
-25 47 -7 152 -59 128 -63 -9 -2 -31 3 -48 12 -24 12 -28 12 -19 2 19 -24 138
-66 186 -66 25 0 59 7 75 16 17 8 33 13 36 10 11 -10 -82 -46 -120 -46 -45 0
-146 39 -194 76 -19 14 -36 24 -39 22 -7 -8 81 -66 141 -92 32 -15 56 -28 54
-31 -4 -4 -68 8 -114 21 -15 5 -17 3 -9 -5 6 -7 38 -21 70 -31 37 -11 50 -19
34 -19 -18 -1 -21 -4 -13 -12 16 -16 152 -14 167 2 8 9 7 10 -6 6 -10 -4 -18
-3 -18 2 0 9 34 21 63 21 11 0 27 10 37 23 15 17 21 19 31 10 10 -10 7 -14
-12 -22 -24 -10 -24 -10 -1 -10 12 -1 22 -6 22 -12 0 -6 7 -3 16 5 17 18 54
22 54 6 0 -5 -5 -10 -11 -10 -6 0 -9 -7 -6 -14 4 -10 1 -13 -9 -9 -7 3 -14 0
-14 -6 0 -6 13 -14 30 -17 16 -4 27 -10 25 -14 -3 -5 4 -11 15 -15 11 -3 20
-13 20 -21 0 -17 14 -18 40 -4 11 6 32 12 48 14 17 2 39 12 51 23 l21 19 -28
31 c-17 18 -43 33 -65 37 -20 4 -42 12 -49 19 -7 7 -36 12 -64 12 -41 0 -50
-3 -46 -15 5 -13 4 -13 -10 0 -9 8 -13 19 -10 24 3 5 -2 7 -11 3 -9 -3 -19 -2
-22 3 -4 7 -13 6 -25 0 -10 -5 -26 -10 -36 -10 -14 0 -14 3 -4 15 7 9 19 14
26 11 7 -3 18 2 24 10 7 8 19 14 26 14 8 0 14 5 14 10 0 15 -11 12 -32 -7 -15
-14 -21 -14 -31 -3 -9 10 -9 11 1 6 7 -4 12 -1 12 9 0 13 -4 14 -20 5 -23 -12
-27 2 -5 20 8 7 15 17 15 23 0 6 -11 0 -25 -13 -14 -13 -25 -20 -25 -16 0 5
-6 3 -14 -3 -36 -30 -153 -14 -198 26 -10 9 -18 13 -18 10 0 -3 -17 1 -37 9
-49 21 -75 26 -67 12 4 -6 1 -9 -6 -6 -20 6 -24 28 -6 28 9 0 16 4 16 9 0 8
49 9 58 1 1 -1 5 -3 10 -4 4 0 23 -13 42 -27 55 -42 96 -59 139 -59 49 0 95
35 112 87 10 30 14 34 23 21 6 -8 16 -13 23 -11 8 3 9 -6 3 -32 -7 -29 -6 -34
5 -25 7 6 17 10 21 9 5 -1 17 1 26 5 12 5 31 0 53 -13 41 -24 45 -25 45 -10 0
5 -4 8 -8 5 -5 -3 -16 4 -25 15 -9 10 -23 19 -31 19 -7 0 -19 7 -26 15 -11 14
-10 14 15 5 15 -6 31 -8 34 -4 3 4 0 9 -6 11 -7 3 -13 11 -13 19 0 12 4 12 20
2 13 -8 19 -20 16 -32 -4 -14 -2 -16 7 -7 16 16 27 14 28 -6 0 -10 3 -13 5 -6
3 7 13 10 22 7 9 -3 4 2 -13 12 -42 23 -65 45 -59 55 8 14 33 -2 27 -17 -3 -8
-1 -14 5 -14 5 0 12 7 16 15 3 8 1 15 -4 15 -5 0 -20 12 -33 26 -16 17 -27 22
-31 15 -4 -6 -2 -11 4 -11 6 0 8 -5 4 -11 -5 -8 -10 -6 -16 5 -5 9 -6 21 -3
26 3 6 3 10 -2 10 -11 0 -33 73 -33 109 0 17 -5 41 -11 55 -10 22 -13 23 -27
10 -21 -21 -41 -1 -25 25 9 14 8 18 -3 18 -8 0 -14 -6 -14 -14 0 -15 -9 -16
-30 -3 -13 9 -12 12 4 25 11 8 15 15 9 15 -6 0 -16 -7 -23 -15z m103 -95 c-7
-8 -22 24 -16 34 4 5 10 1 13 -10 4 -10 6 -21 3 -24z m-113 -35 c28 -14 60
-51 60 -67 0 -5 -18 1 -40 12 -75 38 -190 19 -257 -43 -38 -34 -35 -13 3 32
20 23 52 50 73 61 44 23 121 26 161 5z m-94 -70 c-4 -11 2 -15 28 -15 26 0 35
-5 40 -22 11 -42 5 -53 -9 -19 -14 31 -18 33 -48 27 -17 -3 -37 -12 -42 -20
-9 -11 -12 -11 -23 0 -11 12 -11 17 0 27 7 8 19 12 27 9 9 -3 11 0 6 8 -5 9
-4 11 3 6 7 -4 12 -2 12 3 0 6 3 11 6 11 3 0 4 -7 0 -15z m-176 -5 c0 -5 -5
-10 -11 -10 -5 0 -7 5 -4 10 3 6 8 10 11 10 2 0 4 -4 4 -10z m-370 -70 c0 -5
-7 -10 -16 -10 -8 0 -12 5 -9 10 3 6 10 10 16 10 5 0 9 -4 9 -10z m220 0 c0
-5 -4 -10 -10 -10 -5 0 -10 5 -10 10 0 6 5 10 10 10 6 0 10 -4 10 -10z m277
-22 c-3 -8 -6 -5 -6 6 -1 11 2 17 5 13 3 -3 4 -12 1 -19z m-30 -20 c-3 -8 -6
-5 -6 6 -1 11 2 17 5 13 3 -3 4 -12 1 -19z m-167 -2 c0 -11 -19 -15 -25 -6 -3
5 1 10 9 10 9 0 16 -2 16 -4z m465 -36 c3 -5 1 -10 -4 -10 -6 0 -11 5 -11 10
0 6 2 10 4 10 3 0 8 -4 11 -10z m-209 -18 c-10 -2 -22 0 -28 6 -6 6 0 7 19 4
21 -5 23 -7 9 -10z m154 -146 c-15 -14 -91 -35 -78 -21 6 6 75 33 88 35 2 0
-2 -6 -10 -14z m-127 -63 c-7 -2 -19 -2 -25 0 -7 3 -2 5 12 5 14 0 19 -2 13
-5z m331 -21 c3 -4 -9 -13 -26 -20 -30 -11 -30 -11 -12 8 21 21 30 24 38 12z"/>
<path d="M1610 3136 c0 -8 4 -17 9 -20 5 -4 7 3 4 14 -6 23 -13 26 -13 6z"/>
<path d="M1705 3138 c4 -10 11 -18 15 -18 4 0 14 8 21 18 12 15 12 16 -2 5
-12 -10 -18 -10 -28 0 -10 9 -11 8 -6 -5z"/>
<path d="M1747 3125 l-17 -24 32 13 c60 24 63 26 36 21 -14 -3 -28 -1 -30 4
-2 5 -11 -1 -21 -14z"/>
<path d="M1477 3129 c7 -7 15 -10 18 -7 3 3 -2 9 -12 12 -14 6 -15 5 -6 -5z"/>
<path d="M1845 3130 c-3 -5 -2 -10 4 -10 5 0 13 5 16 10 3 6 2 10 -4 10 -5 0
-13 -4 -16 -10z"/>
<path d="M1540 3121 c0 -5 7 -12 16 -15 27 -10 36 -7 20 9 -16 17 -36 20 -36
6z"/>
<path d="M1410 3110 c-19 -5 -45 -6 -57 -3 -13 3 -23 1 -23 -5 0 -6 -8 -13
-17 -15 -23 -6 52 2 95 9 18 4 35 10 38 15 3 5 4 9 2 8 -2 -1 -19 -5 -38 -9z"/>
<path d="M1461 3088 c10 -7 5 -8 -16 -5 -16 3 -39 1 -50 -4 -16 -7 -14 -8 10
-4 28 4 28 4 7 -7 -17 -9 -28 -8 -47 2 -22 12 -28 10 -60 -11 l-35 -24 55 -8
c50 -7 58 -6 88 18 35 26 56 31 73 16 5 -4 29 -6 53 -3 26 2 38 7 31 12 -7 4
-26 4 -43 -1 -32 -9 -51 -4 -41 12 3 6 13 8 22 4 9 -3 13 -3 9 2 -5 4 -22 8
-39 9 -22 1 -27 -1 -17 -8z m-97 -33 c7 -18 -39 -22 -50 -4 -4 8 1 9 16 4 15
-5 20 -4 16 4 -4 6 -3 11 2 11 6 0 12 -7 16 -15z"/>
<path d="M1595 3090 c-19 -8 -19 -9 2 -9 12 -1 25 4 28 9 7 12 -2 12 -30 0z"/>
<path d="M1810 3091 c0 -5 -12 -14 -27 -20 l-28 -11 30 6 c16 3 32 9 35 13 3
5 12 11 20 14 10 4 8 6 -7 6 -13 1 -23 -3 -23 -8z"/>
<path d="M1235 3079 c-4 -6 -13 -8 -21 -5 -8 3 -14 1 -14 -4 0 -15 26 -12 40
5 7 8 10 15 7 15 -3 0 -9 -5 -12 -11z"/>
<path d="M1275 3080 c-3 -5 -3 -10 2 -10 4 0 1 -5 -7 -11 -12 -8 -12 -10 -1
-7 8 2 15 12 17 21 3 19 -2 22 -11 7z"/>
<path d="M1162 3064 c10 -10 20 -15 24 -12 3 4 -5 12 -18 18 -22 12 -22 12 -6
-6z"/>
<path d="M1615 3071 c-25 -8 -30 -27 -7 -36 9 -3 13 -3 9 1 -12 12 13 32 33
27 11 -3 20 -3 20 0 0 9 -34 14 -55 8z"/>
<path d="M1046 3051 c-10 -11 -14 -25 -9 -37 9 -27 23 -34 63 -33 l35 1 -30 7
c-27 6 -30 10 -29 44 1 41 -5 46 -30 18z"/>
<path d="M1123 3053 c-7 -2 -13 -8 -13 -13 0 -12 46 -21 65 -13 15 5 14 8 -6
19 -26 14 -28 15 -46 7z"/>
<path d="M1220 3036 c7 -7 13 -7 20 0 6 6 3 10 -10 10 -13 0 -16 -4 -10 -10z"/>
<path d="M1450 3041 c0 -4 19 -8 42 -9 23 -1 38 1 35 4 -10 10 -77 14 -77 5z"/>
<path d="M1420 3030 c0 -5 5 -10 10 -10 6 0 10 5 10 10 0 6 -4 10 -10 10 -5 0
-10 -4 -10 -10z"/>
<path d="M1558 3023 c7 -3 16 -2 19 1 4 3 -2 6 -13 5 -11 0 -14 -3 -6 -6z"/>
<path d="M954 2988 c-57 -65 -105 -170 -105 -228 0 -19 4 -63 9 -97 10 -61 12
-65 105 -162 52 -55 116 -117 143 -137 27 -20 52 -42 55 -47 4 -5 12 -6 18 -3
6 4 10 4 9 -1 -5 -16 52 -92 97 -130 37 -30 49 -49 61 -93 42 -150 98 -259
180 -350 l38 -42 -2 -100 -2 -100 -78 -137 c-87 -149 -102 -186 -102 -241 0
-39 -22 -56 -51 -40 -11 6 -31 -26 -84 -128 -38 -76 -88 -164 -111 -197 -22
-33 -53 -86 -67 -118 -15 -32 -40 -76 -57 -97 -17 -21 -39 -59 -50 -84 -12
-25 -25 -48 -30 -51 -6 -3 -10 -21 -10 -40 0 -18 -14 -59 -32 -91 -32 -61 -36
-91 -28 -226 l3 -48 349 0 c233 0 348 3 348 10 0 18 -40 182 -56 232 -23 71
-40 151 -36 171 5 25 43 16 77 -19 25 -25 161 -286 190 -364 10 -29 14 -32 20
-17 5 12 -17 66 -68 170 -70 142 -102 217 -92 217 3 0 23 -36 45 -80 41 -82
60 -107 35 -46 -12 29 -12 36 0 52 8 11 15 14 15 9 0 -6 14 -12 31 -13 27 -2
30 0 23 20 -11 37 -49 117 -94 198 -31 56 -35 67 -15 45 54 -63 137 -198 185
-302 l51 -108 71 110 c70 109 146 208 180 233 10 7 18 19 19 25 0 7 29 38 64
69 47 42 60 59 51 68 -8 8 -6 9 8 4 13 -5 17 -4 12 4 -5 8 0 12 14 12 16 0 20
4 16 15 -4 11 0 15 12 13 9 -2 16 3 14 10 -1 6 5 12 13 12 8 0 15 5 15 10 0 6
3 9 8 8 4 -1 17 3 30 10 17 10 21 19 16 35 -3 12 -3 19 1 15 4 -4 17 -3 29 3
20 10 20 10 2 -5 -11 -9 -15 -16 -9 -16 20 0 34 25 21 38 -7 7 -8 12 -2 12 5
0 15 -5 22 -12 7 -7 12 -8 12 -2 0 6 -5 15 -12 22 -9 9 -9 12 -1 12 7 0 15 -4
18 -10 3 -5 11 -10 16 -10 6 0 7 5 4 10 -3 6 3 10 15 10 12 0 18 4 15 10 -3 5
1 10 10 10 12 0 15 5 11 16 -5 12 -2 15 10 10 11 -4 14 -1 12 12 -2 9 5 25 15
34 18 16 18 18 3 24 -11 4 -15 13 -11 25 4 11 2 19 -5 19 -6 0 -8 -5 -5 -10 9
-14 -8 -13 -23 2 -17 17 -15 29 3 22 11 -5 13 -2 8 12 -5 13 -3 15 7 9 37 -23
49 -39 39 -51 -7 -9 -5 -16 10 -23 24 -13 34 -14 26 -2 -3 5 5 11 17 14 22 3
22 4 3 12 -32 13 -75 46 -75 56 0 6 4 7 10 4 13 -8 116 100 128 135 9 24 8 28
-4 23 -8 -3 -22 1 -32 8 -14 11 -13 9 2 -9 24 -28 8 -29 -30 -1 l-29 21 28
-26 c26 -25 38 -54 15 -40 -6 4 -17 -1 -24 -10 -11 -16 -15 -16 -33 -4 -12 8
-18 18 -14 21 3 4 1 7 -5 7 -19 0 -14 -16 11 -33 12 -8 19 -18 16 -21 -4 -4
-21 6 -40 21 -32 27 -32 17 -1 -19 9 -11 11 -18 4 -18 -6 0 -14 5 -17 10 -3 6
-11 10 -17 10 -6 0 -3 -9 7 -20 10 -11 13 -20 7 -20 -6 0 -14 5 -18 11 -5 8
-10 6 -16 -5 -13 -22 -29 -20 -57 9 -13 14 -27 25 -32 25 -12 0 -11 -17 1 -23
6 -3 5 -4 -2 -3 -7 2 -12 11 -12 20 1 9 -2 16 -7 16 -5 0 -9 5 -9 11 0 6 6 9
14 6 8 -3 22 1 33 9 10 9 12 13 6 9 -8 -4 -13 0 -13 9 0 9 7 16 16 16 9 0 12
5 8 12 -4 7 -3 8 4 4 15 -9 54 12 47 25 -4 5 -10 7 -15 4 -5 -3 -12 0 -16 6
-5 8 -3 9 6 4 10 -6 12 -4 7 9 -6 14 -3 15 13 6 22 -12 27 -1 8 19 -11 11 -10
13 3 8 14 -5 15 -2 5 18 -6 13 -15 21 -19 18 -5 -3 -5 3 0 13 5 11 8 30 7 44
-2 33 17 72 32 66 9 -3 11 1 7 11 -5 12 -2 15 10 10 12 -4 17 -1 17 11 0 13 2
14 9 4 6 -10 10 -3 15 22 4 19 14 40 24 45 9 5 14 13 10 17 -4 4 -14 1 -23 -6
-9 -7 -18 -10 -21 -7 -3 3 -17 2 -30 -3 -27 -11 -45 7 -23 22 12 7 11 9 -1 7
-23 -2 -60 12 -60 24 0 5 -8 3 -18 -6 -20 -18 -32 -22 -32 -9 0 4 12 15 27 24
16 10 22 18 14 18 -8 0 -25 -10 -38 -22 -24 -22 -33 -12 -10 11 10 11 8 11
-10 0 -20 -12 -24 -11 -36 6 -14 18 -15 18 -52 -4 -21 -12 -40 -19 -44 -15 -3
4 0 9 7 11 6 3 12 10 12 16 0 8 -4 7 -12 -1 -15 -15 -45 -15 -54 0 -5 8 -2 9
9 5 10 -3 17 -2 17 3 0 10 -13 14 -40 11 -13 -2 -13 -1 0 8 20 14 50 14 50 0
0 -5 5 -7 11 -3 8 5 6 10 -5 16 -9 5 -13 14 -10 20 4 6 -3 4 -17 -5 -26 -19
-55 -22 -64 -7 -3 5 0 7 8 4 8 -3 20 2 27 11 7 8 19 15 28 15 8 0 13 3 9 6 -3
4 -20 2 -36 -4 -26 -9 -31 -8 -31 4 0 8 -4 12 -10 9 -5 -3 -10 -2 -10 4 0 5
-8 12 -17 14 -10 2 -2 2 18 0 27 -3 38 0 42 11 4 9 2 16 -2 16 -5 0 -11 -5
-13 -12 -3 -7 -12 -9 -24 -4 -19 7 -19 8 1 22 19 15 19 15 -7 9 -17 -4 -28 -3
-28 3 0 6 -9 8 -20 5 -11 -3 -20 0 -20 6 0 6 5 11 12 11 6 0 3 6 -8 14 -17 13
-17 15 -2 21 9 4 19 14 23 23 5 13 0 11 -17 -5 -13 -11 -34 -24 -47 -28 -21
-6 -20 -3 12 29 20 20 32 36 27 36 -5 0 -12 -4 -15 -10 -12 -19 -85 -9 -85 11
0 6 8 5 19 0 14 -8 27 -6 50 5 37 18 37 20 11 20 -11 0 -20 -4 -20 -8 0 -4 -9
-8 -20 -8 -29 0 -24 16 9 30 25 10 35 9 63 -4 32 -16 34 -16 50 4 10 12 22 18
28 15 8 -5 6 -13 -6 -26 -9 -10 -13 -19 -8 -19 5 0 15 9 22 21 11 18 11 23 -5
35 -15 11 -15 13 -2 14 8 0 24 -6 34 -14 18 -13 18 -14 0 -42 -16 -26 -17 -27
-1 -15 15 13 19 13 27 0 5 -8 9 -9 9 -3 0 5 -5 15 -11 21 -8 8 -5 14 10 23 12
6 27 9 34 6 7 -2 4 -5 -6 -5 -10 -1 -15 -6 -12 -11 4 -6 15 -8 26 -5 24 8 25
-10 2 -24 -10 -6 -13 -11 -6 -11 6 0 15 5 19 11 7 13 55 3 69 -14 6 -7 17 -12
25 -12 9 0 15 -9 14 -22 -1 -27 2 -28 21 -10 11 11 9 16 -8 27 -20 12 -20 13
-3 25 10 8 13 16 7 19 -5 4 -12 2 -16 -4 -11 -17 -35 -11 -35 10 0 13 -5 18
-15 14 -16 -7 -48 14 -40 25 2 4 -19 16 -48 26 -29 10 -56 22 -61 26 -6 5 -18
9 -28 9 -10 0 -21 7 -24 15 -4 8 -15 15 -26 15 -11 0 -22 8 -25 20 -3 11 -12
20 -19 20 -8 0 -19 9 -26 19 -6 10 -17 17 -24 14 -7 -2 -20 4 -30 15 -9 11
-23 18 -31 15 -7 -3 -19 -1 -26 5 -6 6 -25 10 -42 11 -55 1 -65 2 -70 11 -3 5
-12 7 -20 3 -25 -9 -47 17 -40 46 4 17 3 21 -3 12 -7 -9 -17 -11 -33 -5 -13 4
-47 8 -75 9 -29 0 -58 5 -65 11 -8 6 -27 14 -44 18 -125 28 -344 111 -360 136
-3 5 -15 10 -25 10 -10 0 -25 8 -32 18 -7 9 -25 23 -40 29 -16 7 -28 17 -28
23 0 10 -53 65 -95 99 -42 34 37 28 103 -9 38 -21 150 -67 192 -79 25 -7 63
-19 85 -26 22 -8 56 -17 75 -20 19 -4 49 -13 65 -20 54 -24 149 -53 210 -65
33 -7 68 -16 77 -21 27 -15 148 -39 218 -45 36 -3 103 -9 149 -13 47 -5 90 -7
97 -4 7 2 15 0 18 -6 4 -6 13 -8 21 -4 8 3 15 1 15 -5 0 -5 20 -15 45 -21 25
-6 43 -16 40 -21 -3 -5 1 -12 8 -17 7 -4 23 -25 36 -46 26 -43 48 -57 90 -57
22 0 32 6 37 23 12 34 11 187 -1 187 -5 0 -41 -7 -80 -16 -88 -19 -120 -19
-275 1 -69 9 -134 17 -145 17 -42 1 -231 29 -250 37 -11 4 -54 16 -95 26 -41
10 -113 31 -160 47 -47 16 -105 35 -130 43 -161 48 -218 67 -254 84 -23 10
-48 21 -56 25 -8 3 -69 34 -135 69 -124 64 -153 95 -85 89 29 -2 32 0 18 8
-10 6 -18 17 -18 24 0 8 -6 16 -14 19 -9 4 -12 15 -9 31 6 30 23 45 23 21 0
-9 5 -13 10 -10 6 4 8 14 5 24 -2 9 4 33 15 54 11 20 20 39 20 42 0 12 -18 3
-36 -17z m-1 -33 c-3 -9 -8 -14 -10 -11 -3 3 -2 9 2 15 9 16 15 13 8 -4z m552
-691 c28 -13 39 -21 25 -18 -37 9 -107 42 -90 43 8 0 38 -11 65 -25z m228 -19
c-19 -14 -37 -10 -27 6 3 5 10 6 16 3 8 -5 9 -1 4 11 -5 15 -4 16 9 5 14 -11
13 -14 -2 -25z m-128 -15 c7 -12 -2 -12 -30 0 -19 8 -19 9 2 9 12 1 25 -3 28
-9z m44 -9 c9 -6 10 -11 2 -15 -6 -4 -11 -2 -11 4 0 6 -4 8 -10 5 -5 -3 -10
-1 -10 4 0 13 10 14 29 2z m156 -11 c3 -5 -1 -10 -9 -10 -9 0 -16 5 -16 10 0
6 4 10 9 10 6 0 13 -4 16 -10z m230 -29 c9 -16 -9 -20 -23 -5 -10 12 -10 14 2
14 8 0 17 -4 21 -9z m-230 -11 c3 -5 0 -10 -9 -10 -8 0 -16 -6 -19 -12 -4 -10
-7 -10 -18 0 -11 10 -10 12 4 12 9 0 17 5 17 10 0 6 4 10 9 10 6 0 13 -4 16
-10z m55 -11 c0 -12 -29 -24 -37 -16 -3 4 -3 13 0 21 6 16 37 11 37 -5z m220
1 c13 -8 13 -10 -2 -10 -9 0 -20 5 -23 10 -8 13 5 13 25 0z m-190 -22 c0 -9 3
-9 9 1 5 8 16 11 26 8 9 -4 13 -11 10 -17 -4 -6 -11 -7 -17 -4 -7 4 -8 2 -4
-4 4 -7 16 -12 27 -12 11 0 17 5 14 10 -3 6 -2 10 4 10 6 0 15 -9 21 -20 8
-15 17 -19 31 -15 23 8 52 -12 42 -29 -4 -6 0 -6 9 2 13 10 22 10 52 -5 19
-10 36 -21 36 -25 0 -13 -21 -9 -36 7 -17 17 -44 20 -44 5 0 -5 7 -7 15 -4 8
4 15 1 15 -5 0 -14 -57 -15 -62 -1 -2 6 -8 6 -18 0 -13 -8 -12 -10 3 -10 9 0
17 -4 17 -9 0 -16 -21 -24 -32 -13 -6 6 -17 8 -24 5 -20 -7 -17 17 4 34 9 8
11 11 3 7 -8 -4 -25 -8 -39 -10 l-25 -3 27 26 c15 14 25 27 22 30 -2 2 -14 -5
-25 -16 -26 -26 -41 -27 -34 -1 4 15 0 20 -16 20 -11 0 -21 5 -21 10 0 6 -7
10 -15 10 -16 0 -20 12 -8 23 11 12 33 8 33 -5z m-111 -41 c0 -8 -2 -8 -6 1
-2 6 -10 12 -18 12 -7 0 -18 7 -25 15 -10 12 -7 12 19 -1 17 -9 31 -21 30 -27z
m421 -70 c0 -32 -25 -65 -40 -51 -7 7 -5 16 10 29 11 10 20 24 20 32 0 7 2 13
5 13 3 0 5 -10 5 -23z m-33 -1 c-10 -8 -19 -18 -20 -23 -1 -4 -16 -8 -32 -8
-17 0 -42 -7 -55 -16 -21 -13 -30 -14 -54 -4 -20 8 -25 15 -16 20 7 4 15 4 19
-1 10 -15 31 -15 31 -1 0 16 62 37 89 30 10 -3 22 0 25 6 4 6 13 11 19 11 7 0
4 -7 -6 -14z m130 -12 c-3 -3 -12 -4 -19 -1 -8 3 -5 6 6 6 11 1 17 -2 13 -5z
m-207 -108 c0 -7 -40 -14 -44 -7 -3 4 6 8 20 9 13 1 24 0 24 -2z m80 -96 c0
-5 -4 -10 -10 -10 -5 0 -10 5 -10 10 0 6 5 10 10 10 6 0 10 -4 10 -10z m-150
-134 c0 -3 -4 -8 -10 -11 -5 -3 -10 -1 -10 4 0 6 5 11 10 11 6 0 10 -2 10 -4z
m380 -15 c0 -5 -9 -13 -20 -16 -11 -3 -20 -10 -20 -15 0 -5 11 -5 24 1 18 9
30 7 56 -6 23 -12 35 -14 43 -6 14 14 27 14 27 0 0 -5 -4 -7 -10 -4 -5 3 -10
1 -10 -4 0 -10 17 -15 48 -14 7 1 12 -3 10 -9 -2 -5 -7 -8 -11 -6 -3 2 -14 -7
-23 -20 -13 -19 -18 -21 -32 -10 -11 9 -14 9 -9 1 6 -9 -1 -11 -25 -8 -18 2
-34 9 -36 15 -2 5 -11 10 -20 10 -16 1 -16 2 0 14 10 7 15 16 11 19 -3 4 -1 7
5 7 5 0 12 -4 14 -10 2 -6 8 -6 18 0 13 8 12 10 -2 10 -10 0 -18 4 -18 9 0 4
-11 6 -25 3 -17 -3 -23 -8 -16 -16 17 -20 -11 -33 -39 -18 l-25 14 28 -6 c15
-4 27 -2 27 3 0 12 -27 22 -45 15 -15 -6 -48 19 -38 29 3 3 12 0 20 -8 12 -13
17 -12 35 5 12 11 25 17 30 14 4 -3 8 0 8 5 0 6 5 11 10 11 6 0 10 -4 10 -9z
m-383 -27 c-3 -3 -12 -4 -19 -1 -8 3 -5 6 6 6 11 1 17 -2 13 -5z m17 -18 c-10
-8 -21 -12 -23 -10 -3 2 4 11 15 18 10 8 21 12 23 10 3 -2 -4 -11 -15 -18z
m53 -30 c0 -8 -6 -12 -15 -9 -11 5 -11 7 0 14 7 5 13 9 14 9 0 0 1 -6 1 -14z
m-37 0 c0 -2 -9 -6 -20 -9 -11 -3 -18 -1 -14 4 5 9 34 13 34 5z m15 -26 c-3
-5 -14 -10 -23 -10 -15 0 -15 2 -2 10 20 13 33 13 25 0z m85 -20 c-13 -8 -12
-10 2 -10 9 0 19 6 21 13 4 9 6 9 6 -1 1 -7 -6 -15 -14 -18 -24 -10 -17 -24
13 -25 24 0 25 -1 7 -9 -17 -8 -16 -9 10 -11 40 -3 47 -2 70 6 11 3 7 -1 -8
-10 -16 -9 -35 -14 -43 -11 -9 4 -12 2 -8 -5 6 -10 25 -8 71 7 15 5 15 4 3 -5
-13 -9 -13 -11 3 -11 9 0 17 5 17 11 0 6 7 3 16 -5 8 -9 20 -16 25 -16 6 0 7
-4 4 -10 -3 -5 -1 -10 5 -10 7 0 10 -7 6 -15 -3 -8 0 -15 7 -15 9 0 8 -3 -1
-9 -11 -7 -11 -9 2 -14 19 -7 22 -57 4 -58 -7 0 -5 -4 6 -8 18 -7 18 -8 1 -25
-10 -9 -24 -15 -32 -12 -8 3 -11 1 -8 -5 4 -5 14 -7 23 -5 24 8 46 -9 39 -28
-4 -10 -1 -16 8 -16 19 0 19 -15 0 -34 -9 -9 -11 -17 -5 -21 5 -3 10 -1 10 4
0 6 5 11 10 11 16 0 12 -17 -6 -24 -16 -6 -44 9 -44 24 0 4 10 12 23 18 22 11
22 11 -3 6 -20 -4 -28 1 -42 25 -22 39 -67 69 -77 52 -6 -9 -10 -7 -14 8 -3
12 -11 21 -17 21 -10 0 -10 -3 0 -15 9 -10 9 -15 1 -15 -6 0 -11 4 -11 8 0 5
-15 16 -32 26 -30 15 -21 15 16 0 9 -3 14 0 12 9 -4 30 -46 64 -46 38 0 -5 9
-13 21 -16 11 -4 18 -9 15 -12 -3 -3 -17 2 -31 11 -14 9 -30 14 -35 11 -6 -3
-10 -4 -10 0 0 14 52 25 73 14 22 -10 22 -10 2 6 -11 9 -32 15 -47 12 -15 -2
-25 0 -22 4 2 4 -4 14 -15 21 -37 26 25 43 89 24 17 -5 12 1 -15 18 -44 28
-55 31 -55 15 0 -5 5 -7 12 -3 7 4 8 3 4 -5 -4 -7 -13 -10 -19 -8 -7 2 -20 0
-31 -5 -14 -8 -16 -7 -11 2 4 7 1 17 -6 22 -11 8 -10 8 4 4 20 -6 61 16 50 27
-3 4 -11 0 -17 -9 -7 -9 -18 -12 -29 -8 -24 9 -21 27 3 19 14 -4 22 -1 27 11
4 11 2 19 -6 22 -8 3 -6 8 6 17 10 7 20 11 23 9 2 -3 -2 -9 -10 -14z m-75 0
c-3 -5 -12 -10 -18 -10 -7 0 -6 4 3 10 19 12 23 12 15 0z m43 -20 c7 -12 8
-20 2 -20 -5 0 -10 5 -10 11 0 6 -9 8 -22 3 -20 -6 -21 -5 -9 10 17 21 24 20
39 -4z m372 -70 c20 -40 34 -130 20 -130 -4 0 -10 -9 -13 -19 -3 -15 -13 -19
-36 -19 -26 1 -31 5 -36 32 -7 39 -1 148 9 164 14 23 36 12 56 -28z m-190
-202 c0 -6 -3 -8 -7 -5 -3 4 -12 2 -20 -4 -17 -14 -17 -3 0 15 13 15 27 12 27
-6z m15 -18 c-3 -5 -12 -10 -18 -10 -7 0 -6 4 3 10 19 12 23 12 15 0z m25 -20
c0 -5 -4 -10 -10 -10 -5 0 -10 5 -10 10 0 6 5 10 10 10 6 0 10 -4 10 -10z m20
-30 c0 -5 -7 -7 -15 -4 -8 4 -15 8 -15 10 0 2 7 4 15 4 8 0 15 -4 15 -10z m0
-30 c3 -3 16 -14 30 -23 18 -12 20 -17 8 -17 -9 0 -23 7 -32 15 -8 8 -21 15
-30 15 -8 0 -17 4 -21 9 -6 11 37 11 45 1z m178 -115 c-3 -3 -9 2 -12 12 -6
14 -5 15 5 6 7 -7 10 -15 7 -18z m112 -15 c0 -5 -4 -10 -10 -10 -5 0 -10 5
-10 10 0 6 5 10 10 10 6 0 10 -4 10 -10z m-90 -25 c29 -31 15 -33 -17 -3 -13
12 -23 17 -23 11 0 -6 7 -16 15 -23 8 -7 15 -18 15 -24 0 -12 -49 44 -50 57 0
17 38 5 60 -18z m-50 -30 c14 -19 14 -19 -2 -6 -10 7 -18 18 -18 24 0 6 1 8 3
6 1 -2 9 -13 17 -24z m-27 -10 c10 -14 14 -25 9 -25 -6 0 -17 11 -26 25 -21
32 -7 32 17 0z m-135 -20 c-3 -3 -9 2 -12 12 -6 14 -5 15 5 6 7 -7 10 -15 7
-18z m36 9 c3 -8 2 -12 -4 -9 -6 3 -10 10 -10 16 0 14 7 11 14 -7z m70 0 c10
-25 -1 -29 -14 -5 -6 12 -7 21 -1 21 5 0 12 -7 15 -16z m-134 -59 c0 -5 -5 -3
-10 5 -5 8 -10 20 -10 25 0 6 5 3 10 -5 5 -8 10 -19 10 -25z m90 14 c0 -6 -4
-7 -10 -4 -5 3 -10 11 -10 16 0 6 5 7 10 4 6 -3 10 -11 10 -16z m-6 -95 c7
-19 2 -18 -19 6 -16 17 -16 20 -3 15 9 -4 19 -13 22 -21z m-34 -4 c0 -5 -2
-10 -4 -10 -3 0 -8 5 -11 10 -3 6 -1 10 4 10 6 0 11 -4 11 -10z m-206 -206 c3
-8 2 -12 -4 -9 -6 3 -10 10 -10 16 0 14 7 11 14 -7z m-1173 -248 c5 -31 26
-89 45 -129 40 -85 44 -114 8 -66 -48 62 -74 134 -74 201 0 73 6 72 21 -6z
m64 -18 l5 -33 -20 40 c-24 48 -27 80 -5 48 8 -12 17 -37 20 -55z m52 0 c-3
-7 -5 -2 -5 12 0 14 2 19 5 13 2 -7 2 -19 0 -25z m163 -134 c0 -8 5 -12 10 -9
6 4 10 -8 10 -29 0 -27 -3 -34 -15 -30 -8 4 -15 9 -16 13 0 3 -2 21 -5 39 -2
17 1 32 6 32 6 0 10 -7 10 -16z"/>
<path d="M2010 2080 c0 -5 4 -10 9 -10 6 0 13 5 16 10 3 6 -1 10 -9 10 -9 0
-16 -4 -16 -10z"/>
<path d="M2278 1433 c6 -2 18 -2 25 0 6 3 1 5 -13 5 -14 0 -19 -2 -12 -5z"/>
<path d="M2144 1405 c8 -8 27 -14 43 -14 27 2 27 2 3 6 -14 3 -29 9 -34 14
-17 16 -28 10 -12 -6z"/>
<path d="M2188 1413 c7 -3 16 -2 19 1 4 3 -2 6 -13 5 -11 0 -14 -3 -6 -6z"/>
<path d="M2235 1400 c19 -8 19 -9 1 -9 -11 -1 -17 -3 -14 -6 3 -4 18 -3 34 1
25 6 26 8 9 15 -28 11 -55 10 -30 -1z"/>
<path d="M2248 1353 c7 -3 16 -2 19 1 4 3 -2 6 -13 5 -11 0 -14 -3 -6 -6z"/>
<path d="M2257 1309 c7 -7 15 -10 18 -7 3 3 -2 9 -12 12 -14 6 -15 5 -6 -5z"/>
<path d="M2300 1290 c8 -5 22 -9 30 -9 10 0 8 3 -5 9 -27 12 -43 12 -25 0z"/>
<path d="M1221 2974 c-26 -33 -23 -48 11 -52 24 -3 33 11 38 66 2 19 -30 10
-49 -14z"/>
<path d="M1288 2973 c-2 -5 -4 -24 -3 -43 0 -32 2 -35 30 -35 24 0 31 5 33 25
2 14 8 30 13 36 5 6 6 14 2 17 -9 9 -71 9 -75 0z"/>
<path d="M1573 2930 c2 -8 12 -16 23 -17 13 -2 15 -1 4 4 -8 3 -19 11 -23 17
-6 7 -7 6 -4 -4z"/>
<path d="M1444 2919 c-3 -6 -15 -9 -25 -6 -22 6 -26 -8 -5 -16 8 -3 22 3 32
14 9 10 14 19 11 19 -3 0 -9 -5 -13 -11z"/>
<path d="M1542 2916 c7 -8 15 -12 17 -11 5 6 -10 25 -20 25 -5 0 -4 -6 3 -14z"/>
<path d="M1440 2859 c0 -5 5 -7 10 -4 6 3 10 8 10 11 0 2 -4 4 -10 4 -5 0 -10
-5 -10 -11z"/>
<path d="M2525 2830 c3 -5 11 -10 16 -10 6 0 7 5 4 10 -3 6 -11 10 -16 10 -6
0 -7 -4 -4 -10z"/>
<path d="M1676 2803 c-9 -23 -7 -24 14 -13 16 8 24 6 41 -11 11 -11 23 -18 25
-16 8 7 -35 44 -56 50 -11 3 -21 -1 -24 -10z"/>
<path d="M1780 2802 c6 -13 14 -21 18 -18 3 4 -2 14 -12 24 -18 16 -18 16 -6
-6z"/>
<path d="M1856 2792 c-3 -6 -1 -14 5 -17 14 -9 20 -2 10 14 -6 8 -11 9 -15 3z"/>
<path d="M2010 2790 c0 -5 5 -10 11 -10 5 0 7 5 4 10 -3 6 -8 10 -11 10 -2 0
-4 -4 -4 -10z"/>
<path d="M990 2775 c7 -8 17 -15 22 -15 5 0 3 7 -6 15 -8 8 -18 15 -22 15 -3
0 -1 -7 6 -15z"/>
<path d="M1480 2780 c0 -5 5 -10 10 -10 6 0 10 5 10 10 0 6 -4 10 -10 10 -5 0
-10 -4 -10 -10z"/>
<path d="M1510 2780 c0 -5 9 -10 20 -10 11 0 20 -4 20 -10 0 -5 15 -10 33 -10
30 1 30 2 -18 20 -59 23 -55 23 -55 10z"/>
<path d="M2563 2755 c-10 -10 -9 -16 4 -27 15 -11 16 -11 10 6 -6 15 -5 17 6
8 10 -9 14 -8 14 3 0 20 -20 25 -34 10z"/>
<path d="M2370 2740 c8 -5 20 -10 25 -10 6 0 3 5 -5 10 -8 5 -19 10 -25 10 -5
0 -3 -5 5 -10z"/>
<path d="M2610 2745 c0 -3 9 -16 20 -28 12 -12 16 -23 10 -25 -5 -2 -10 -8
-10 -13 0 -4 7 -6 15 -3 8 4 15 1 15 -5 0 -17 27 -13 34 5 4 12 1 14 -14 9
-19 -6 -26 4 -20 30 1 5 -7 15 -16 22 -19 14 -34 17 -34 8z"/>
<path d="M220 2730 c0 -5 5 -10 10 -10 6 0 10 5 10 10 0 6 -4 10 -10 10 -5 0
-10 -4 -10 -10z"/>
<path d="M1755 2710 c3 -5 8 -10 11 -10 2 0 4 5 4 10 0 6 -5 10 -11 10 -5 0
-7 -4 -4 -10z"/>
<path d="M1710 2686 c0 -2 13 -6 29 -8 17 -2 28 -1 25 4 -5 8 -54 12 -54 4z"/>
<path d="M2701 2658 c-1 -21 -5 -22 -31 -8 -23 12 -40 -7 -19 -21 8 -5 11 -9
6 -9 -4 0 -1 -13 8 -29 8 -17 12 -36 9 -44 -3 -8 4 -24 16 -35 15 -14 24 -40
31 -88 17 -113 37 -172 61 -180 15 -4 26 -1 35 12 7 9 16 15 19 11 4 -4 1 -15
-7 -24 -11 -15 -10 -15 9 1 28 24 28 34 0 38 -13 2 -22 9 -20 17 1 7 -3 19 -9
27 -9 11 -9 17 0 28 9 11 9 15 0 18 -9 3 -9 9 0 26 10 19 9 21 -6 15 -12 -5
-15 -2 -10 10 3 9 2 19 -3 22 -6 4 -7 17 -4 31 4 15 2 24 -6 24 -7 0 -10 7 -6
15 3 8 1 15 -4 15 -6 0 -10 5 -10 11 0 5 5 7 10 4 6 -3 10 -1 10 5 0 7 -8 9
-20 5 -11 -3 -20 -2 -20 3 0 6 5 12 11 14 5 2 7 11 4 20 -4 9 -13 14 -20 12
-8 -4 -16 8 -23 33 -5 21 -10 30 -11 21z"/>
<path d="M2053 2463 c9 -2 23 -2 30 0 6 3 -1 5 -18 5 -16 0 -22 -2 -12 -5z"/>
<path d="M2145 2449 c51 -10 92 -10 50 1 -16 4 -43 8 -60 8 -25 0 -24 -2 10
-9z"/>
<path d="M2692 2435 c0 -16 2 -22 5 -12 2 9 2 23 0 30 -3 6 -5 -1 -5 -18z"/>
<path d="M2255 2430 c3 -5 8 -10 11 -10 2 0 4 5 4 10 0 6 -5 10 -11 10 -5 0
-7 -4 -4 -10z"/>
<path d="M2840 2300 c0 -5 5 -10 10 -10 6 0 10 5 10 10 0 6 -4 10 -10 10 -5 0
-10 -4 -10 -10z"/>
<path d="M2860 2140 c0 -5 5 -10 10 -10 6 0 10 5 10 10 0 6 -4 10 -10 10 -5 0
-10 -4 -10 -10z"/>
<path d="M2644 2038 c3 -10 1 -18 -3 -18 -13 0 -22 -28 -11 -35 16 -10 32 33
20 53 -11 16 -11 16 -6 0z"/>
<path d="M2780 2040 c0 -5 5 -10 11 -10 5 0 7 5 4 10 -3 6 -8 10 -11 10 -2 0
-4 -4 -4 -10z"/>
<path d="M2846 2031 c-4 -7 -5 -15 -2 -18 9 -9 19 4 14 18 -4 11 -6 11 -12 0z"/>
<path d="M2750 1978 c0 -19 2 -20 10 -8 13 19 13 30 0 30 -5 0 -10 -10 -10
-22z"/>
<path d="M2910 1959 c0 -11 4 -18 10 -14 5 3 7 12 3 20 -7 21 -13 19 -13 -6z"/>
<path d="M2741 1934 c0 -11 3 -14 6 -6 3 7 2 16 -1 19 -3 4 -6 -2 -5 -13z"/>
<path d="M2261 1924 c0 -11 3 -14 6 -6 3 7 2 16 -1 19 -3 4 -6 -2 -5 -13z"/>
<path d="M2865 1920 c-3 -5 1 -10 10 -10 10 0 13 -5 9 -12 -4 -7 -3 -8 4 -4
12 7 5 36 -8 36 -5 0 -12 -4 -15 -10z"/>
<path d="M2317 1909 c7 -7 15 -10 18 -7 3 3 -2 9 -12 12 -14 6 -15 5 -6 -5z"/>
<path d="M2280 1896 c0 -8 -8 -17 -17 -19 -17 -4 -17 -5 -1 -6 10 0 22 8 28
19 7 14 7 20 0 20 -5 0 -10 -6 -10 -14z"/>
<path d="M2388 1903 c6 -2 18 -2 25 0 6 3 1 5 -13 5 -14 0 -19 -2 -12 -5z"/>
<path d="M2169 1883 c-13 -17 -13 -17 6 -3 11 8 22 16 24 17 2 2 0 3 -6 3 -6
0 -17 -8 -24 -17z"/>
<path d="M0 1855 c0 -19 5 -35 10 -35 6 0 10 16 10 35 0 19 -4 35 -10 35 -5 0
-10 -16 -10 -35z"/>
<path d="M2211 1874 c0 -11 3 -14 6 -6 3 7 2 16 -1 19 -3 4 -6 -2 -5 -13z"/>
<path d="M2506 1875 c-3 -9 -11 -13 -17 -9 -8 5 -9 3 -4 -5 6 -10 11 -9 23 3
9 8 13 18 10 21 -3 3 -8 -1 -12 -10z"/>
<path d="M2386 1853 c-6 -14 -5 -15 5 -6 7 7 10 15 7 18 -3 3 -9 -2 -12 -12z"/>
<path d="M2870 1860 c0 -6 -9 -21 -20 -32 -20 -22 -19 -52 3 -73 7 -7 8 -6 4
1 -8 14 11 84 23 84 6 0 10 7 10 15 0 8 -4 15 -10 15 -5 0 -10 -5 -10 -10z"/>
<path d="M2263 1835 c-3 -9 -3 -19 1 -22 3 -4 6 1 6 10 0 8 8 18 18 20 16 4
16 5 -1 6 -10 0 -20 -6 -24 -14z"/>
<path d="M2348 1833 c7 -3 16 -2 19 1 4 3 -2 6 -13 5 -11 0 -14 -3 -6 -6z"/>
<path d="M2485 1830 c-3 -5 -1 -10 4 -10 6 0 11 5 11 10 0 6 -2 10 -4 10 -3 0
-8 -4 -11 -10z"/>
<path d="M2305 1820 c-3 -6 1 -7 9 -4 18 7 21 14 7 14 -6 0 -13 -4 -16 -10z"/>
<path d="M2280 1804 c0 -5 7 -18 15 -28 8 -11 15 -16 15 -10 0 5 -7 18 -15 28
-8 11 -15 16 -15 10z"/>
<path d="M2365 1799 c-4 -6 -14 -8 -24 -4 -11 4 -13 3 -5 -5 8 -8 19 -6 40 5
18 9 23 15 12 15 -9 0 -20 -5 -23 -11z"/>
<path d="M2543 1775 c-6 -14 -7 -23 -2 -19 13 8 31 44 22 44 -4 0 -13 -11 -20
-25z"/>
<path d="M2486 1778 c3 -5 10 -6 15 -3 13 9 11 12 -6 12 -8 0 -12 -4 -9 -9z"/>
<path d="M2570 1769 c-6 -11 -9 -25 -6 -32 2 -7 5 -3 5 7 1 19 1 19 15 1 13
-18 15 -18 41 -1 15 10 24 20 21 23 -3 4 -14 -1 -24 -10 -23 -21 -39 -22 -22
-2 7 9 10 18 6 22 -3 3 -6 1 -6 -5 0 -7 -5 -12 -11 -12 -6 0 -9 7 -5 15 8 22
-2 18 -14 -6z"/>
<path d="M2320 1743 c0 -15 18 -35 23 -27 3 5 -1 15 -9 22 -8 7 -14 9 -14 5z"/>
<path d="M2630 1730 c-9 -6 -10 -10 -3 -10 6 0 15 5 18 10 8 12 4 12 -15 0z"/>
<path d="M2378 1703 c6 -2 18 -2 25 0 6 3 1 5 -13 5 -14 0 -19 -2 -12 -5z"/>
<path d="M2345 1690 c-3 -5 -1 -10 4 -10 6 0 11 5 11 10 0 6 -2 10 -4 10 -3 0
-8 -4 -11 -10z"/>
<path d="M2468 1683 c7 -3 16 -2 19 1 4 3 -2 6 -13 5 -11 0 -14 -3 -6 -6z"/>
<path d="M2707 1649 c7 -7 15 -10 18 -7 3 3 -2 9 -12 12 -14 6 -15 5 -6 -5z"/>
<path d="M2740 1596 c0 -15 18 -31 26 -23 7 7 -7 37 -17 37 -5 0 -9 -6 -9 -14z"/>
<path d="M2836 1594 c-4 -10 -1 -14 6 -12 15 5 23 28 10 28 -5 0 -13 -7 -16
-16z"/>
<path d="M2870 1545 c-26 -47 -23 -72 3 -31 16 23 33 76 25 76 -2 0 -14 -20
-28 -45z"/>
<path d="M2830 1469 c0 -5 5 -7 10 -4 6 3 10 8 10 11 0 2 -4 4 -10 4 -5 0 -10
-5 -10 -11z"/>
<path d="M2571 1347 c2 -1 13 -9 24 -17 19 -14 19 -14 6 3 -7 9 -18 17 -24 17
-6 0 -8 -1 -6 -3z"/>
<path d="M2765 1295 c-5 -11 -10 -24 -13 -29 -3 -5 0 -6 7 -2 7 5 19 0 27 -10
9 -11 12 -13 9 -6 -4 8 -11 26 -15 40 -7 25 -8 25 -15 7z"/>
<path d="M2652 1284 c10 -10 20 -16 22 -13 3 3 -5 11 -17 18 -21 13 -21 12 -5
-5z"/>
<path d="M2606 1275 c10 -8 23 -15 28 -15 6 0 1 7 -10 15 -10 8 -23 15 -28 15
-6 0 -1 -7 10 -15z"/>
<path d="M2536 1201 c9 -17 17 -31 19 -31 8 0 -9 40 -21 51 -10 8 -10 3 2 -20z"/>
<path d="M2488 1183 c-26 -7 -22 -15 19 -41 20 -13 31 -17 24 -8 -7 8 -10 20
-6 25 4 7 -1 8 -11 4 -13 -5 -16 -3 -11 10 3 9 5 16 4 16 -1 -1 -10 -3 -19 -6z"/>
<path d="M2655 1050 c3 -5 8 -10 11 -10 2 0 4 5 4 10 0 6 -5 10 -11 10 -5 0
-7 -4 -4 -10z"/>
<path d="M2608 877 c-31 -26 -45 -78 -26 -94 10 -8 21 0 46 36 l34 46 -37 -38
c-46 -48 -59 -41 -16 8 17 20 29 40 26 45 -3 4 1 11 7 13 7 3 9 6 3 6 -5 1
-22 -9 -37 -22z"/>
<path d="M2569 563 l-34 -36 32 22 c34 23 48 39 41 47 -2 2 -20 -13 -39 -33z"/>
<path d="M0 259 l0 -260 132 2 c72 2 126 5 120 7 -7 2 -12 10 -12 18 0 8 -8
14 -18 14 -11 0 -27 9 -37 20 -10 11 -24 20 -32 20 -9 0 -13 13 -13 40 0 22
-4 40 -8 40 -11 0 -32 92 -32 140 0 21 -5 42 -10 45 -5 3 -10 21 -10 40 0 21
-6 35 -16 39 -12 5 -15 14 -11 36 7 31 -12 60 -39 60 -12 0 -14 -41 -14 -261z"/>
<path d="M2273 238 c-83 -95 -163 -188 -178 -205 l-27 -33 35 0 c33 0 40 6
111 103 41 56 96 124 121 150 40 42 101 144 91 154 -1 2 -71 -74 -153 -169z"/>
<path d="M3755 321 c-17 -10 -58 -49 -91 -87 -34 -38 -93 -105 -132 -149 -68
-77 -70 -80 -45 -83 30 -4 86 46 196 178 39 47 74 87 78 90 12 9 40 70 32 70
-5 0 -22 -8 -38 -19z"/>
<path d="M3825 300 c8 -16 15 -38 15 -48 0 -20 -62 -197 -81 -233 -9 -18 -5
-19 67 -19 l77 0 -5 109 c-4 107 -6 112 -41 165 -40 60 -57 74 -32 26z m1
-227 c-13 -24 -15 -25 -16 -7 0 11 5 25 12 32 19 19 21 6 4 -25z"/>
<path d="M3040 195 c-9 -11 -9 -15 -1 -15 7 0 10 -4 7 -8 -3 -5 6 -15 19 -22
31 -17 69 -93 62 -125 -3 -21 0 -25 19 -25 20 0 24 5 24 28 0 55 -28 146 -50
164 -27 22 -63 23 -80 3z"/>
</g>
</svg>
